<svg width="106" height="106" viewBox="0 0 106 106" fill="none" xmlns="http://www.w3.org/2000/svg">
<g clip-path="url(#clip0_212_522)">
<path d="M100.871 81.0645C100.871 81.6168 100.423 82.0645 99.8709 82.0645H72.6614V105C72.6614 105.552 72.2137 106 71.6614 106H63.4033C62.851 106 62.4033 105.552 62.4033 105V82.0645H34.3386C33.7863 82.0645 33.3386 81.6168 33.3386 81.0645V58.9459C33.3386 58.3936 33.7863 57.9459 34.3386 57.9459H41.9861C42.5384 57.9459 42.9861 58.3936 42.9861 58.9459V71.4171C42.9861 71.9694 43.4338 72.4171 43.9861 72.4171H90.2234C90.7757 72.4171 91.2234 71.9694 91.2234 71.4171V25.1798C91.2234 24.6275 90.7757 24.1798 90.2234 24.1798H43.9861C43.4338 24.1798 42.9861 24.6275 42.9861 25.1798V43.5968H52C52.5523 43.5968 53 44.0445 53 44.5968V52.1222C53 52.6744 52.5523 53.1221 52 53.1221H29.0646V105C29.0646 105.552 28.6169 106 28.0646 106H20.4904C19.9382 106 19.4904 105.552 19.4904 105V78.1492C19.4904 77.5969 19.0427 77.1492 18.4904 77.1492H15.7033C15.1511 77.1492 14.7033 77.5969 14.7033 78.1492V105C14.7033 105.552 14.2556 106 13.7033 106H6.12915C5.57687 106 5.12915 105.552 5.12915 105V76.9355H1C0.447717 76.9355 0 76.4878 0 75.9355V53.1221C0 50.5959 1.01525 48.1731 2.82242 46.3867C4.62959 44.6004 7.08064 43.5968 9.63636 43.5968H33.3386V15.5323C33.3386 14.98 33.7863 14.5323 34.3386 14.5323H99.8709C100.423 14.5323 100.871 14.98 100.871 15.5323V81.0645Z" fill="white"/>
<path fill-rule="evenodd" clip-rule="evenodd" d="M105 23.9355C105.552 23.9355 106 23.4878 106 22.9355V1C106 0.447715 105.552 0 105 0H30.0645C29.5122 0 29.0645 0.447715 29.0645 1V22.9355C29.0645 23.4878 29.5122 23.9355 30.0644 23.9355H105ZM39.6814 14.3613C39.1291 14.3613 38.6814 13.9136 38.6814 13.3613V10.5742C38.6814 10.0219 39.1291 9.57419 39.6814 9.57419H95.383C95.9353 9.57419 96.383 10.0219 96.383 10.5742V13.3613C96.383 13.9136 95.9353 14.3613 95.383 14.3613H39.6814Z" fill="#FFE500"/>
<path d="M23.9356 29.0645C23.9356 34.2578 19.7256 38.4678 14.5324 38.4678C9.33912 38.4678 5.12915 34.2578 5.12915 29.0645C5.12915 23.8713 9.33912 19.6613 14.5324 19.6613C19.7256 19.6613 23.9356 23.8713 23.9356 29.0645Z" fill="#FFE500"/>
</g>
<defs>
<clipPath id="clip0_212_522">
<rect width="106" height="106" fill="white"/>
</clipPath>
</defs>
</svg>
