<svg width="106" height="106" viewBox="0 0 106 106" fill="none" xmlns="http://www.w3.org/2000/svg">
<path d="M10.5 31.5C11.0523 31.5 11.5 31.0523 11.5 30.5V15.5C11.5 14.9477 11.9477 14.5 12.5 14.5H20V30.5C20 31.0523 20.4477 31.5 21 31.5H49.75V47.5C49.75 48.0523 50.1977 48.5 50.75 48.5H57.25C57.8023 48.5 58.25 48.0523 58.25 47.5V24C58.25 23.4477 57.8023 23 57.25 23H28.5V14.5H91.25C91.8023 14.5 92.25 14.0523 92.25 13.5V7C92.25 6.44772 91.8023 6 91.25 6H4C3.44772 6 3 6.44772 3 7V30.5C3 31.0523 3.44772 31.5 4 31.5H10.5Z" fill="white"/>
<path d="M91.25 99.5C91.8023 99.5 92.25 99.0523 92.25 98.5V41C92.25 40.4477 91.8023 40 91.25 40H84.75C84.1977 40 83.75 40.4477 83.75 41V90C83.75 90.5523 83.3023 91 82.75 91H45.5V82.5H74.25C74.8023 82.5 75.25 82.0523 75.25 81.5V75C75.25 74.4477 74.8023 74 74.25 74H21C20.4477 74 20 74.4477 20 75V81.5C20 82.0523 20.4477 82.5 21 82.5H37V91H12.5C11.9477 91 11.5 90.5523 11.5 90V65.5H23.25C23.8023 65.5 24.25 65.0523 24.25 64.5V58C24.25 57.4477 23.8023 57 23.25 57H4C3.44772 57 3 57.4477 3 58V98.5C3 99.0523 3.44772 99.5 4 99.5H91.25Z" fill="white"/>
<path d="M102.793 27.9571L95 35.75V31.5H76.25C75.6977 31.5 75.25 31.9477 75.25 32.5V64.5C75.25 65.0523 74.8023 65.5 74.25 65.5H33.75C33.1977 65.5 32.75 65.0523 32.75 64.5V49.5C32.75 48.9477 32.3023 48.5 31.75 48.5H4C3.44772 48.5 3 48.0523 3 47.5V41C3 40.4477 3.44772 40 4 40H40.25C40.8023 40 41.25 40.4477 41.25 41V56C41.25 56.5523 41.6977 57 42.25 57H65.75C66.3023 57 66.75 56.5523 66.75 56V24C66.75 23.4477 67.1977 23 67.75 23H95V18.75L102.793 26.5429C103.183 26.9334 103.183 27.5666 102.793 27.9571Z" fill="#FFE500"/>
</svg>
