<svg width="106" height="106" viewBox="0 0 106 106" fill="none" xmlns="http://www.w3.org/2000/svg">
<g clip-path="url(#clip0_212_536)">
<path d="M42.4167 100.375C42.9689 100.375 43.4167 99.9273 43.4167 99.375V83.2083C43.4167 82.656 43.8644 82.2083 44.4167 82.2083H56.0417C56.5939 82.2083 57.0417 81.7606 57.0417 81.2083V65.0417C57.0417 64.4894 57.4894 64.0417 58.0417 64.0417H74.2083C74.7606 64.0417 75.2083 63.594 75.2083 63.0417V46.875C75.2083 46.3227 75.656 45.875 76.2083 45.875H92.375C92.9273 45.875 93.375 45.4273 93.375 44.875V28.7083C93.375 28.156 93.8227 27.7083 94.375 27.7083H106C106.552 27.7083 107 27.2606 107 26.7083V19.625C107 19.0727 106.552 18.625 106 18.625H85.2917C84.7394 18.625 84.2917 19.0727 84.2917 19.625V35.7917C84.2917 36.344 83.8439 36.7917 83.2917 36.7917H67.125C66.5727 36.7917 66.125 37.2394 66.125 37.7917V53.9583C66.125 54.5106 65.6773 54.9583 65.125 54.9583H48.9583C48.406 54.9583 47.9583 55.406 47.9583 55.9583V72.125C47.9583 72.6773 47.5106 73.125 46.9583 73.125H35.3333C34.781 73.125 34.3333 73.5727 34.3333 74.125V90.2917C34.3333 90.8439 33.8856 91.2917 33.3333 91.2917H-1C-1.55228 91.2917 -2 91.7394 -2 92.2917V99.375C-2 99.9273 -1.55228 100.375 -0.999999 100.375H42.4167Z" fill="white"/>
<path d="M2.54175 59.5444H-0.908937C-1.46122 59.5444 -1.90894 59.0966 -1.90894 58.5444V36.836C-1.90894 34.427 -0.951813 32.1166 0.751643 30.4131C2.4551 28.7097 4.76535 27.7527 7.1744 27.7527H22.2478C22.5126 27.7527 22.7666 27.8577 22.9541 28.0448L41.4844 46.5317C41.8748 46.9211 41.8762 47.553 41.4877 47.9443L36.3569 53.1108C35.9671 53.5032 35.3328 53.5047 34.9412 53.1142L25.2501 43.4492V85.75C25.2501 86.3023 24.8024 86.75 24.2501 86.75H17.1667C16.6145 86.75 16.1667 86.3023 16.1667 85.75V60.5C16.1667 59.9477 15.719 59.5 15.1667 59.5H12.6251C12.0728 59.5 11.6251 59.9477 11.6251 60.5V85.75C11.6251 86.3023 11.1774 86.75 10.6251 86.75H3.54175C2.98946 86.75 2.54175 86.3023 2.54175 85.75V59.5444Z" fill="white"/>
<path d="M11.6251 23.1667C16.6417 23.1667 20.7084 19.0999 20.7084 14.0833C20.7084 9.06675 16.6417 5 11.6251 5C6.60849 5 2.54175 9.06675 2.54175 14.0833C2.54175 19.0999 6.60849 23.1667 11.6251 23.1667Z" fill="#FFE500"/>
<path d="M89.5413 61.3434L58.169 92.7157C57.7785 93.1062 57.7785 93.7394 58.169 94.1299L63.1777 99.1386C63.5682 99.5291 64.2014 99.5291 64.5919 99.1386L95.9642 67.7663L100.751 72.5533C101.381 73.1833 102.458 72.7371 102.458 71.8462V55.9583C102.458 55.406 102.011 54.9583 101.458 54.9583H85.5705C84.6796 54.9583 84.2334 56.0355 84.8634 56.6654L89.5413 61.3434Z" fill="#FFE500"/>
</g>
<defs>
<clipPath id="clip0_212_536">
<rect width="106" height="106" fill="white"/>
</clipPath>
</defs>
</svg>
