<svg width="106" height="106" viewBox="0 0 106 106" fill="none" xmlns="http://www.w3.org/2000/svg">
<g clip-path="url(#clip0_212_555)">
<path d="M105 38C105.552 38 106 37.5523 106 37V8C106 7.44772 105.552 7 105 7H76C75.4477 7 75 7.44771 75 8V14.8571C75 15.4094 75.4477 15.8571 76 15.8571H90.9942L71.9034 35.0507C71.5119 35.4443 70.8749 35.4437 70.4842 35.0495L58.9044 23.3681C58.5319 22.9923 57.9311 22.9717 57.5338 23.3212L20.7466 55.6779C20.3335 56.0412 20.2914 56.6699 20.6524 57.085L25.1349 62.2403C25.499 62.6591 26.1344 62.7013 26.5507 62.3344L57.096 35.4161C57.4927 35.0664 58.0932 35.0862 58.4661 35.4611L70.4837 47.5435C70.8748 47.9368 71.5113 47.9366 71.9022 47.5431L97.1428 22.1335V37C97.1428 37.5523 97.5905 38 98.1428 38H105Z" fill="#FFE500"/>
<path fill-rule="evenodd" clip-rule="evenodd" d="M8.83333 82H41C40.4477 82 40 82.4477 40 83V90H37C36.4477 90 36 90.4477 36 91V98C36 98.5523 36.4477 99 37 99H70C70.5523 99 71 98.5523 71 98V91C71 90.4477 70.5523 90 70 90H67V83C67 82.4477 66.5523 82 66 82H97.1667C99.5094 82 101.756 81.0704 103.413 79.4157C105.069 77.7609 106 75.5166 106 73.1765V47.7059C106 47.1536 105.552 46.7059 105 46.7059H98.1667C97.6144 46.7059 97.1667 47.1536 97.1667 47.7059V55H8.83333V16.8235C8.83333 16.2712 9.28105 15.8235 9.83333 15.8235H65.25C65.8023 15.8235 66.25 15.3758 66.25 14.8235V8C66.25 7.44772 65.8023 7 65.25 7H8.83333C6.49059 7 4.24365 7.92961 2.58708 9.58435C0.930511 11.2391 0 13.4834 0 15.8235V73.1765C0 75.5166 0.930511 77.7609 2.58708 79.4157C4.24365 81.0704 6.49059 82 8.83333 82ZM59 82H48C48.5523 82 49 82.4477 49 83V90H58V83C58 82.4477 58.4477 82 59 82ZM8.83333 64H97.1667V72.1765C97.1667 72.7288 96.7189 73.1765 96.1667 73.1765H9.83333C9.28105 73.1765 8.83333 72.7288 8.83333 72.1765V64Z" fill="white"/>
</g>
<defs>
<clipPath id="clip0_212_555">
<rect width="106" height="106" fill="white"/>
</clipPath>
</defs>
</svg>
