<svg width="106" height="106" viewBox="0 0 106 106" fill="none" xmlns="http://www.w3.org/2000/svg">
<path fill-rule="evenodd" clip-rule="evenodd" d="M74.25 91C74.25 91.5523 73.8023 92 73.25 92H31.7501C31.1978 92 30.7501 91.5523 30.7501 91V82.2852C30.7501 81.929 30.5599 81.6003 30.2543 81.4173C22.1988 76.5918 15.9024 69.2724 12.3113 60.5451C8.64676 51.6396 8.00382 41.7658 10.4822 32.4549C12.9606 23.1441 18.4219 14.9167 26.0189 9.04868C33.6159 3.18066 42.9242 0 52.5 0C62.0759 0 71.3841 3.18066 78.9812 9.04868C86.5782 14.9167 92.0393 23.1441 94.5177 32.4549C96.9961 41.7658 96.3533 51.6396 92.6888 60.5451C89.0976 69.2724 82.8013 76.5918 74.7458 81.4173C74.4402 81.6003 74.25 81.929 74.25 82.2852V91ZM39.4501 82.2424C39.4501 82.7947 39.8978 83.2424 40.4501 83.2424H48.0296C48.0103 83.1648 48 83.0836 48 83V53H45C44.4477 53 44 52.5523 44 52V45C44 44.4477 44.4477 44 45 44H60C60.5523 44 61 44.4477 61 45V52C61 52.5523 60.5523 53 60 53H57V83C57 83.0836 56.9897 83.1648 56.9704 83.2424H64.55C65.1023 83.2424 65.55 82.7947 65.55 82.2424V77.0226C65.55 76.6474 65.7601 76.3038 66.094 76.1327L67.9425 75.1854C74.9738 71.6744 80.6196 65.8739 83.9631 58.7258C87.3065 51.5776 88.1512 43.5016 86.36 35.8093C84.5688 28.1169 80.2469 21.26 74.0962 16.352C67.9454 11.4439 60.3271 8.77306 52.4783 8.77306C44.6294 8.77306 37.0111 11.4439 30.8604 16.352C24.7096 21.26 20.3877 28.1169 18.5965 35.8093C16.8053 43.5016 17.6501 51.5776 20.9935 58.7258C24.3369 65.8739 29.9828 71.6744 37.0141 75.1854L38.8996 76.1344C39.2371 76.3043 39.4501 76.6498 39.4501 77.0276V82.2424Z" fill="white"/>
<path d="M34.0001 44C34.5524 44 34.997 43.5518 35.03 43.0005C35.2837 38.7678 37.142 34.7577 40.2722 31.7435C43.4115 28.7205 47.5909 26.9294 52.0005 26.6934C52.552 26.6639 53.0001 26.219 53.0001 25.6667V19C53.0001 18.4477 52.552 17.9982 52.0001 18.0178C45.2025 18.2602 38.7355 20.9667 33.9082 25.6153C29.09 30.255 26.2809 36.4678 26.0201 43.0001C25.998 43.5519 26.4478 44 27.0001 44H34.0001Z" fill="#FFE500"/>
<path d="M31.0001 96H73.0001C73.5524 96 74.0001 96.4477 74.0001 97V104C74.0001 104.552 73.5524 105 73.0001 105H31.0001C30.4478 105 30.0001 104.552 30.0001 104V97C30.0001 96.4477 30.4478 96 31.0001 96Z" fill="#FFE500"/>
</svg>
