<svg width="106" height="106" viewBox="0 0 106 106" fill="none" xmlns="http://www.w3.org/2000/svg">
<g clip-path="url(#clip0_212_514)">
<path d="M90.8367 22.4872C91.0242 22.2997 91.2788 22.1916 91.5437 22.204C93.7429 22.3068 95.8311 23.2257 97.3948 24.7895C99.0565 26.4512 99.99 28.7048 99.99 31.0548V65.4964C99.99 66.0487 99.5423 66.4964 98.99 66.4964H91.174V105.325C91.174 105.877 90.7262 106.325 90.174 106.325H74.4531C73.9008 106.325 73.4531 105.877 73.4531 105.325V66.4964H65.5483C64.9961 66.4964 64.5483 66.0487 64.5483 65.4964V31.0548C64.5483 28.7048 65.4818 26.4512 67.1435 24.7895C68.7073 23.2257 70.7954 22.3068 72.9947 22.204C73.2596 22.1916 73.5141 22.2997 73.7016 22.4872L81.5621 30.3477C81.9526 30.7382 82.5857 30.7382 82.9763 30.3477L90.8367 22.4872Z" fill="white"/>
<path d="M82.3134 17.7208C87.2069 17.7208 91.1739 13.7539 91.1739 8.86041C91.1739 3.96694 87.2069 0 82.3134 0C77.42 0 73.453 3.96694 73.453 8.86041C73.453 13.7539 77.42 17.7208 82.3134 17.7208Z" fill="#FFE500"/>
<path d="M42.4416 39.8719H35.9954C35.1045 39.8719 34.6583 38.7948 35.2883 38.1648L46.1647 27.2884C46.5552 26.8979 47.1884 26.8979 47.5789 27.2884L58.4553 38.1648C59.0853 38.7948 58.6391 39.8719 57.7482 39.8719H51.302V105.325C51.302 105.877 50.8542 106.325 50.302 106.325H43.4416C42.8893 106.325 42.4416 105.877 42.4416 105.325V39.8719Z" fill="#FFE500"/>
<path d="M15.8603 66.4532H9.41411C8.52321 66.4532 8.07704 65.3761 8.70701 64.7461L19.5834 53.8697C19.9739 53.4792 20.6071 53.4792 20.9976 53.8697L31.874 64.7461C32.504 65.3761 32.0578 66.4532 31.1669 66.4532H24.7207V105.325C24.7207 105.877 24.273 106.325 23.7207 106.325H16.8603C16.308 106.325 15.8603 105.877 15.8603 105.325V66.4532Z" fill="#FFE500"/>
</g>
<defs>
<clipPath id="clip0_212_514">
<rect width="106" height="106" fill="white"/>
</clipPath>
</defs>
</svg>
