<svg width="48" height="48" fill="none" xmlns="http://www.w3.org/2000/svg"><path fill-rule="evenodd" clip-rule="evenodd" d="M24 1C16.872 1 11.062 3.01 7.036 7.036 3.01 11.062 1 16.872 1 24c0 7.128 2.01 12.938 6.036 16.964C11.062 44.99 16.872 47 24 47c7.128 0 12.938-2.01 16.964-6.036C44.99 36.938 47 31.128 47 24c0-7.128-2.01-12.938-6.036-16.964C36.938 3.01 31.128 1 24 1Zm0 5.525a2.13 2.13 0 0 0-2.13 2.13v.368a2.13 2.13 0 1 0 4.26 0v-.369A2.13 2.13 0 0 0 24 6.524Zm6.767 19.583a2.13 2.13 0 1 1 0-4.26h.368a2.13 2.13 0 0 1 0 4.26h-.368Zm-16.339-2.13a2.13 2.13 0 0 0 2.13 2.13h.368a2.13 2.13 0 0 0 0-4.26h-.368a2.13 2.13 0 0 0-2.13 2.13Zm11.034 7.058a2.13 2.13 0 1 1 3.689-2.13l.184.32a2.13 2.13 0 1 1-3.689 2.13l-.184-.32Zm-6.324-15.214a2.13 2.13 0 0 0-.78 2.909l.184.319a2.13 2.13 0 0 0 3.689-2.13l-.184-.319a2.13 2.13 0 0 0-2.91-.78Zm-.596 13.085a2.13 2.13 0 1 1 3.689 2.13l-.184.318a2.13 2.13 0 0 1-3.689-2.13l.184-.319Zm10.013-13.085a2.13 2.13 0 0 0-2.909.78l-.184.318a2.13 2.13 0 1 0 3.689 2.13l.184-.32a2.13 2.13 0 0 0-.78-2.908ZM21.87 39.517a2.13 2.13 0 1 1 4.26 0v.369a2.13 2.13 0 1 1-4.26 0v-.369ZM41.745 24.27a2.13 2.13 0 0 0-2.13-2.13h-.368a2.13 2.13 0 0 0 0 4.26h.368a2.13 2.13 0 0 0 2.13-2.13ZM8.753 22.14a2.13 2.13 0 0 1 0 4.26h-.368a2.13 2.13 0 0 1 0-4.26h.368Zm27.794-10.417a2.13 2.13 0 0 0-3.011 0l-.26.26a2.13 2.13 0 0 0 3.011 3.012l.26-.26a2.13 2.13 0 0 0 0-3.012ZM11.713 33.544a2.13 2.13 0 1 1 3.012 3.012l-.26.26a2.13 2.13 0 1 1-3.013-3.011l.26-.26Zm24.834 3.273a2.13 2.13 0 0 0 0-3.012l-.26-.26a2.13 2.13 0 0 0-3.012 3.012l.26.26a2.13 2.13 0 0 0 3.012 0ZM14.725 11.983a2.13 2.13 0 0 1-3.012 3.012l-.26-.26a2.13 2.13 0 0 1 3.011-3.012l.26.26Z" fill="#FFE500"/></svg>