<svg width="48" height="48" fill="none" xmlns="http://www.w3.org/2000/svg"><path fill-rule="evenodd" clip-rule="evenodd" d="M16.96.702C22.37-.85 28.358.195 34.522 3.612c6.164 3.415 10.224 7.938 11.776 13.348 1.552 5.41.506 11.398-2.91 17.562-3.415 6.164-7.938 10.224-13.348 11.776-5.41 1.552-11.398.506-17.562-2.91C6.314 39.974 2.254 35.45.702 30.04-.85 24.63.195 18.642 3.612 12.478 7.026 6.314 11.55 2.254 16.96.702Zm15.124 13.285c3.215 1.782 4.402 5.92 2.62 9.136-.801 1.446-2.062 2.612-3.653 3.172.632 1.936.5 4.118-.551 6.014-2.005 3.616-6.664 4.953-10.28 2.949l-.752-.417-.776 1.4A2.105 2.105 0 1 1 15.01 34.2l.776-1.4-4.67-2.588a2.105 2.105 0 1 1 2.04-3.683l1.106.612 7.723-13.936-1.105-.613A2.105 2.105 0 1 1 22.92 8.91l4.67 2.588.482-.869a2.105 2.105 0 1 1 3.683 2.041l-.482.87.81.448Zm-5.267 16.28c-.877 1.583-2.974 2.185-4.557 1.308l-4.316-2.393 3.25-5.863 4.316 2.392c1.582.877 2.184 2.974 1.307 4.556Zm3.226-12.597c1.181.655 1.633 2.23.978 3.412-.742 1.34-2.149 1.678-3.47.946l-4.317-2.392 2.433-4.39 4.376 2.424Z" fill="#FFE500"/></svg>