<svg width="48" height="48" fill="none" xmlns="http://www.w3.org/2000/svg"><g clip-path="url(#a)"><path fill-rule="evenodd" clip-rule="evenodd" d="M.717 17.318C2.303 11.793 6.45 7.175 12.746 3.687 19.04.199 25.156-.87 30.682.717c5.525 1.586 10.143 5.733 13.631 12.029 3.488 6.295 4.555 12.41 2.97 17.936-1.586 5.525-5.733 10.143-12.029 13.631-6.296 3.488-12.41 4.556-17.936 2.97-5.525-1.586-10.143-5.733-13.631-12.029C.199 28.958-.87 22.844.717 17.318Zm15.248-7.821a2.15 2.15 0 0 1 1.873-.102l12.122 5.083a2.15 2.15 0 0 1 1.178 2.747l-3.785 9.963a2.15 2.15 0 0 1-2.428 1.346L14.47 26.459a2.15 2.15 0 0 1-1.704-2.455l2.118-12.973a2.15 2.15 0 0 1 1.08-1.534Zm4.992 22.942a2.15 2.15 0 0 0-.837 4.218l10.455 2.075a2.15 2.15 0 0 0 2.428-1.346l3.785-9.963a2.15 2.15 0 1 0-4.02-1.528l-3.14 8.264-8.67-1.72Z" fill="#FFE500"/></g><defs><clipPath id="a"><path fill="#fff" d="M0 0h48v48H0z"/></clipPath></defs></svg>