<svg width="58" height="58" viewBox="0 0 58 58" fill="none" xmlns="http://www.w3.org/2000/svg">
<path d="M6.64581 15.7084C6.64581 7.70024 13.1377 1.20837 21.1458 1.20837C29.1539 1.20837 35.6458 7.70024 35.6458 15.7084C35.6458 20.8043 33.017 25.2864 29.0415 27.8722C25.3027 31.2964 22.9583 36.2181 22.9583 41.6875C22.9583 43.5741 23.2373 45.3957 23.7562 47.113C22.9296 47.1208 22.0603 47.125 21.1459 47.125C13.2155 47.125 8.66894 46.8108 6.06383 46.4737C4.72578 46.3006 3.59182 45.6553 2.86558 44.6443C2.14058 43.635 1.88951 42.3558 2.13531 41.0375C3.25498 35.0329 7.19379 30.0149 12.5356 27.3763C8.96267 24.7354 6.64581 20.4924 6.64581 15.7084Z" fill="white"/>
<path fill-rule="evenodd" clip-rule="evenodd" d="M26.5833 41.6875C26.5833 33.3457 33.3456 26.5834 41.6875 26.5834C50.0293 26.5834 56.7916 33.3457 56.7916 41.6875C56.7916 50.0294 50.0293 56.7917 41.6875 56.7917C33.3456 56.7917 26.5833 50.0294 26.5833 41.6875ZM49.6761 38.2858C50.4667 37.2105 50.2361 35.6978 49.1608 34.9072C48.0855 34.1166 46.5728 34.3473 45.7822 35.4226L40.3711 42.7816L37.3847 39.6871C36.4579 38.7268 34.9279 38.6996 33.9676 39.6264C33.0072 40.5533 32.98 42.0831 33.9069 43.0435L38.8823 48.1991C39.3769 48.7115 40.0722 48.9797 40.7827 48.9321C41.4931 48.8846 42.1465 48.5262 42.5682 47.9525L49.6761 38.2858Z" fill="#FFE600"/>
</svg>
