<svg width="58" height="58" viewBox="0 0 58 58" fill="none" xmlns="http://www.w3.org/2000/svg">
<path fill-rule="evenodd" clip-rule="evenodd" d="M41.6875 26.5834C33.3456 26.5834 26.5833 33.3457 26.5833 41.6875C26.5833 50.0294 33.3456 56.7917 41.6875 56.7917C50.0293 56.7917 56.7916 50.0294 56.7916 41.6875C56.7916 33.3457 50.0293 26.5834 41.6875 26.5834ZM41.6875 33.2292C43.0222 33.2292 44.1041 34.3111 44.1041 35.6459V39.2709H47.7291C49.0639 39.2709 50.1458 40.3528 50.1458 41.6875C50.1458 43.0223 49.0639 44.1042 47.7291 44.1042H44.1041V47.7292C44.1041 49.0639 43.0222 50.1459 41.6875 50.1459C40.3528 50.1459 39.2708 49.0639 39.2708 47.7292V44.1042H35.6458C34.3111 44.1042 33.2291 43.0223 33.2291 41.6875C33.2291 40.3528 34.3111 39.2709 35.6458 39.2709H39.2708V35.6459C39.2708 34.3111 40.3528 33.2292 41.6875 33.2292Z" fill="#FFE500"/>
<path d="M6.64581 15.7084C6.64581 7.70024 13.1377 1.20837 21.1458 1.20837C29.1539 1.20837 35.6458 7.70024 35.6458 15.7084C35.6458 20.8043 33.017 25.2864 29.0415 27.8722C25.3027 31.2964 22.9583 36.2181 22.9583 41.6875C22.9583 43.5741 23.2373 45.3957 23.7562 47.113C22.9296 47.1208 22.0603 47.125 21.1459 47.125C13.2155 47.125 8.66894 46.8108 6.06383 46.4737C4.72578 46.3006 3.59182 45.6553 2.86558 44.6443C2.14058 43.635 1.88951 42.3558 2.13531 41.0375C3.25498 35.0329 7.19379 30.0149 12.5356 27.3763C8.96267 24.7354 6.64581 20.4924 6.64581 15.7084Z" fill="white"/>
</svg>
