<svg width="228" height="65" fill="none" xmlns="http://www.w3.org/2000/svg"><path d="m80.556.754-7.203 4.151-7.203 4.152c-3.745 2.16-3.745 7.562 0 9.722l.559.324-7.446 12.889-.81 1.403-.683 1.176-1.347 2.33a2.293 2.293 0 0 1-3.141.837 2.287 2.287 0 0 1-.84-3.138l2.84-4.916h.008l.31-.529a7.66 7.66 0 0 0-2.811-10.471c-3.672-2.117-8.366-.86-10.485 2.807L31.18 40.729l-.765 1.323a2.173 2.173 0 0 1-2.973.793 2.167 2.167 0 0 1-.794-2.968l2.06-3.572 1.596-2.763a7.66 7.66 0 0 0-2.81-10.471c-3.672-2.117-8.366-.86-10.485 2.807L1.03 53.5a7.66 7.66 0 0 0 2.81 10.471c3.672 2.116 8.366.86 10.485-2.807l3.421-5.923 2.399-4.152-.302-.176c-1.052-.61-1.052-2.131 0-2.734l2.03-1.168 2.031-1.168c1.053-.61 2.37.154 2.37 1.366v4.674c0 1.205-1.303 1.962-2.355 1.374l-.544.94.036.023a7.655 7.655 0 0 0 3.179 9.744c3.671 2.116 8.365.86 10.484-2.807l6.063-10.486 2.656-4.593-.147-.089c-1.053-.61-1.053-2.13 0-2.733l2.03-1.168 2.03-1.169c1.053-.61 2.37.154 2.37 1.367v4.674c0 1.183-1.25 1.925-2.296 1.403l-2.957 5.122a7.661 7.661 0 0 0 2.81 10.472c3.672 2.116 8.366.86 10.485-2.808l19.88-34.39.559.323c3.745 2.16 8.431-.536 8.431-4.857V5.618c0-4.32-4.68-7.018-8.431-4.857V.754Z" fill="#3838DF"/><path d="M80.092 40.994c2.332-4.035 8.16-4.035 10.484 0l4.32 7.466 4.318 7.466c2.332 4.034-.581 9.068-5.246 9.068H76.7c-4.657 0-7.57-5.041-5.246-9.068l4.32-7.466 4.318-7.466Z" fill="#FFE500"/><path d="M123.675 15.173c2.864 0 5.122-1.036 6.564-2.902l-3.114-2.757c-.858 1.078-1.882 1.7-3.199 1.7-2.048 0-3.428-1.41-3.428-3.628 0-2.217 1.38-3.627 3.428-3.627 1.317 0 2.341.622 3.199 1.7l3.114-2.757C128.797 1.036 126.539 0 123.675 0c-4.703 0-8.152 3.13-8.152 7.586 0 4.457 3.449 7.587 8.152 7.587ZM142.095 14.841h5.268l-3.073-4.477c1.756-.891 2.759-2.467 2.759-4.56 0-3.358-2.592-5.472-6.668-5.472h-7.045v14.51h4.933v-3.649h1.338l2.488 3.648Zm-.021-9.037c0 1.057-.648 1.7-2.007 1.7h-1.798v-3.4h1.798c1.359 0 2.007.643 2.007 1.7ZM164.595.332h-4.766l-3.01 5.016L153.83.332h-5.205l5.518 9.182v5.327h4.934V9.576l5.518-9.244ZM173.939.332h-7.045v14.51h4.934v-3.566h2.111c4.076 0 6.668-2.114 6.668-5.472 0-3.358-2.592-5.472-6.668-5.472Zm-.314 7.172h-1.797v-3.4h1.797c1.359 0 2.007.643 2.007 1.7s-.648 1.7-2.007 1.7ZM186.749 14.841h4.933V4.125h4.285V.332h-13.504v3.793h4.286V14.84ZM206.389 15.173c4.766 0 8.257-3.192 8.257-7.587 0-4.394-3.491-7.586-8.257-7.586s-8.257 3.192-8.257 7.586c0 4.395 3.491 7.587 8.257 7.587Zm0-3.96c-1.819 0-3.282-1.367-3.282-3.627 0-2.259 1.463-3.627 3.282-3.627 1.818 0 3.282 1.368 3.282 3.627 0 2.26-1.464 3.628-3.282 3.628ZM119.285 39.715h4.934V29h4.285v-3.794H115V29h4.285v10.716ZM140.217 39.715h5.268l-3.073-4.477c1.756-.892 2.759-2.467 2.759-4.56 0-3.358-2.592-5.473-6.668-5.473h-7.045v14.51h4.933v-3.648h1.338l2.488 3.648Zm-.021-9.037c0 1.057-.648 1.7-2.007 1.7h-1.798v-3.4h1.798c1.359 0 2.007.642 2.007 1.7ZM159.66 39.715h5.101l-6.397-14.51h-4.85l-6.396 14.51h5.017l.982-2.529h5.561l.982 2.53Zm-5.184-6.053 1.422-3.648 1.421 3.649h-2.843ZM167.221 39.715h7.212c4.891 0 8.257-2.757 8.257-7.255 0-4.498-3.366-7.255-8.257-7.255h-7.212v14.51Zm4.933-3.814V29.02h2.07c2.069 0 3.491 1.223 3.491 3.441s-1.422 3.441-3.491 3.441h-2.07ZM186.164 39.715h4.933v-14.51h-4.933v14.51ZM204.76 25.205v6.592l-5.56-6.592h-4.056v14.51h4.808v-6.592l5.561 6.592h4.055v-14.51h-4.808ZM223.297 35.735a4.633 4.633 0 0 1-1.798.353c-2.112 0-3.491-1.451-3.491-3.628 0-2.238 1.379-3.627 3.553-3.627 1.297 0 2.363.539 3.282 1.596L228 27.672c-1.484-1.803-3.805-2.798-6.689-2.798-4.829 0-8.279 3.13-8.279 7.586 0 4.457 3.45 7.587 8.174 7.587 2.153 0 4.599-.643 6.376-1.845v-6.136h-4.285v3.67Z" fill="#3838DF"/><path d="M121.564 64.92c4.536 0 6.815-2.238 6.815-4.891 0-5.348-8.09-3.897-8.09-5.638 0-.498.46-.913 1.902-.913 1.275 0 2.634.353 4.076 1.078l1.485-3.544c-1.526-.85-3.554-1.264-5.519-1.264-4.536 0-6.815 2.197-6.815 4.891 0 5.41 8.09 3.939 8.09 5.763 0 .497-.502.787-1.902.787-1.61 0-3.449-.518-4.829-1.326l-1.589 3.565c1.463.891 3.93 1.493 6.376 1.493ZM139.087 64.92c2.863 0 5.121-1.036 6.564-2.901l-3.115-2.757c-.857 1.078-1.882 1.7-3.199 1.7-2.048 0-3.428-1.41-3.428-3.628s1.38-3.627 3.428-3.627c1.317 0 2.342.621 3.199 1.7l3.115-2.758c-1.443-1.865-3.701-2.901-6.564-2.901-4.704 0-8.153 3.13-8.153 7.586s3.449 7.587 8.153 7.587ZM158.238 50.08v5.14h-4.557v-5.14h-4.934v14.509h4.934V59.24h4.557v5.348h4.933v-14.51h-4.933ZM174.893 64.92c4.766 0 8.257-3.192 8.257-7.586s-3.491-7.587-8.257-7.587c-4.767 0-8.258 3.193-8.258 7.587s3.491 7.587 8.258 7.587Zm0-3.959c-1.819 0-3.282-1.368-3.282-3.627 0-2.26 1.463-3.627 3.282-3.627 1.818 0 3.282 1.368 3.282 3.627 0 2.26-1.464 3.627-3.282 3.627ZM194.285 64.92c4.766 0 8.257-3.192 8.257-7.586s-3.491-7.587-8.257-7.587-8.258 3.193-8.258 7.587 3.492 7.587 8.258 7.587Zm0-3.959c-1.819 0-3.282-1.368-3.282-3.627 0-2.26 1.463-3.627 3.282-3.627 1.818 0 3.282 1.368 3.282 3.627 0 2.26-1.464 3.627-3.282 3.627ZM206.005 64.589h11.539v-3.793h-6.606V50.079h-4.933v14.51Z" fill="#FFE500"/><path d="M222.565 64.796c1.568 0 2.759-1.12 2.759-2.695 0-1.596-1.191-2.653-2.759-2.653-1.568 0-2.759 1.057-2.759 2.653 0 1.576 1.191 2.695 2.759 2.695Z" fill="#3838DF"/></svg>