<svg width="59" height="58" viewBox="0 0 59 58" fill="none" xmlns="http://www.w3.org/2000/svg">
<path d="M12.5777 46.5208C11.248 46.5208 10.1429 46.3712 9.26447 46.1739C6.96035 45.6561 5.93188 43.5342 5.93188 41.6944V24.1667C5.93188 14.7441 6.04068 9.01359 6.10912 6.34112C6.15125 4.69614 7.05346 2.72832 9.18935 2.19482C10.0599 1.97737 11.1817 1.8125 12.5777 1.8125C13.9738 1.8125 15.0955 1.97737 15.9661 2.19482C18.102 2.72832 19.0042 4.69614 19.0463 6.3411C19.1148 9.01359 19.2236 14.7441 19.2236 24.1667V41.6944C19.2236 43.5342 18.1951 45.6561 15.891 46.1739C15.0126 46.3712 13.9074 46.5208 12.5777 46.5208Z" fill="white"/>
<path d="M29.4943 46.5208C28.6382 46.5208 27.8847 46.49 27.2339 46.4431C24.5119 46.247 22.8485 43.9151 22.8485 41.515V35.0417C22.8485 31.9382 22.9016 29.6757 22.9574 28.1539C23.0388 25.9334 24.6002 23.8576 27.0998 23.6535C27.7672 23.5991 28.5624 23.5625 29.4943 23.5625C30.4263 23.5625 31.2215 23.5991 31.8889 23.6535C34.3885 23.8576 35.9499 25.9334 36.0313 28.1539C36.0871 29.6757 36.1402 31.9382 36.1402 35.0417V41.515C36.1402 43.9151 34.4768 46.247 31.7548 46.4431C31.104 46.49 30.3504 46.5208 29.4943 46.5208Z" fill="white"/>
<path d="M46.4111 46.5209C45.3433 46.5209 44.4279 46.4507 43.665 46.3505C41.1162 46.0154 39.7653 43.7621 39.7653 41.6305V30.2084C39.7653 24.4127 39.8478 20.5892 39.9145 18.443C39.9751 16.4968 41.2096 14.4314 43.5774 14.0859C44.341 13.9745 45.2807 13.8959 46.4111 13.8959C47.5415 13.8959 48.4812 13.9745 49.2448 14.0859C51.6126 14.4314 52.847 16.4968 52.9077 18.443C52.9744 20.5891 53.0569 24.4127 53.0569 30.2084V41.6305C53.0569 43.7621 51.706 46.0154 49.1571 46.3505C48.3943 46.4507 47.4789 46.5209 46.4111 46.5209Z" fill="#FFE500"/>
<path fill-rule="evenodd" clip-rule="evenodd" d="M2.30688 53.1667C2.30688 51.4984 3.65936 50.1459 5.32772 50.1459H53.6611C55.3294 50.1459 56.6819 51.4984 56.6819 53.1667C56.6819 54.8351 55.3294 56.1875 53.6611 56.1875H5.32772C3.65936 56.1875 2.30688 54.8351 2.30688 53.1667Z" fill="white"/>
</svg>
