<svg width="58" height="58" viewBox="0 0 58 58" fill="none" xmlns="http://www.w3.org/2000/svg">
<path fill-rule="evenodd" clip-rule="evenodd" d="M54.375 19.221L52.5939 20.8571C51.8111 21.5754 50.88 22.1129 49.8664 22.4315C48.8529 22.7502 47.7817 22.8422 46.7287 22.701L44.8147 22.4448L36.3757 29.98C35.248 30.9851 33.7786 31.5209 32.2687 31.4775C30.7587 31.4342 29.3225 30.815 28.2544 29.7469C27.1862 28.6787 26.567 27.2425 26.5237 25.7325C26.4804 24.2226 27.0161 22.7532 28.0213 21.6256L35.5564 13.1866L35.3003 11.2726C35.1592 10.2197 35.2513 9.14876 35.57 8.13544C35.8886 7.12212 36.426 6.19119 37.1442 5.40852L38.7803 3.62502C35.6598 2.42311 32.3439 1.80861 29 1.81252C13.9853 1.81252 1.8125 13.9853 1.8125 29C1.8125 44.0148 13.9853 56.1875 29 56.1875C31.1557 56.1875 33.2533 55.9362 35.2652 55.4625C33.5603 53.8035 31.9147 52.0846 30.3316 50.309C28.4273 48.1763 27.6455 44.4776 30.0525 41.6585C30.6023 41.0145 31.1641 40.4562 31.6873 39.9862C34.5668 37.3979 38.4866 38.1737 40.7087 40.3269C41.3528 40.9504 41.9328 41.5208 42.4488 42.0355C43.9327 39.9903 45.4465 37.9669 46.9897 35.9661C48.6644 33.7862 52.2218 32.1296 55.5084 34.2539L55.6607 34.3541C56.012 32.5911 56.1885 30.7977 56.1875 29C56.1875 25.5526 55.5471 22.2563 54.375 19.221ZM11.4792 29C11.4792 19.3237 19.3237 11.4792 29 11.4792C29.4807 11.4792 29.9417 11.2882 30.2816 10.9483C30.6215 10.6084 30.8125 10.1474 30.8125 9.66669C30.8125 9.18598 30.6215 8.72496 30.2816 8.38505C29.9417 8.04514 29.4807 7.85419 29 7.85419C17.3215 7.85419 7.85417 17.3215 7.85417 29C7.85417 38.8552 14.5955 47.1323 23.7148 49.4801C24.1804 49.5999 24.6746 49.5299 25.0886 49.2854C25.5026 49.0409 25.8025 48.6419 25.9224 48.1763C26.0422 47.7106 25.9722 47.2164 25.7277 46.8024C25.4832 46.3884 25.0842 46.0885 24.6186 45.9686C17.0617 44.0232 11.4792 37.1611 11.4792 29ZM25.7351 19.72C25.9756 20.136 26.0411 20.6305 25.9172 21.0948C25.7932 21.5591 25.49 21.9551 25.0741 22.1959C23.7988 22.9316 22.7559 24.0109 22.0643 25.3106C21.3727 26.6104 21.0602 28.0783 21.1625 29.547C21.2648 31.0158 21.7777 32.4262 22.6428 33.6176C23.5079 34.8089 24.6903 35.7332 26.0553 36.2851C26.4912 36.472 26.8365 36.8224 27.017 37.2611C27.1975 37.6997 27.1988 38.1916 27.0208 38.6312C26.8427 39.0709 26.4994 39.4232 26.0645 39.6126C25.6296 39.8019 25.1379 39.8133 24.6947 39.6442C22.7007 38.8375 20.9735 37.4869 19.7098 35.7463C18.446 34.0057 17.6967 31.9452 17.547 29.7994C17.3974 27.6536 17.8536 25.509 18.8635 23.6099C19.8734 21.7107 21.3965 20.1335 23.2592 19.0579C23.4652 18.9386 23.6928 18.861 23.9288 18.8297C24.1648 18.7983 24.4046 18.8138 24.6347 18.8752C24.8647 18.9366 25.0804 19.0426 25.2694 19.1874C25.4584 19.3322 25.6171 19.5127 25.7363 19.7188L25.7351 19.72Z" fill="white"/>
<path d="M53.54 37.2988C53.54 37.2984 53.54 37.2992 53.54 37.2988C52.3039 36.5001 50.7608 37.01 49.863 38.1773C44.8207 44.7361 42.897 47.7304 42.897 47.7304C42.897 47.7304 41.3552 46.0012 38.1869 42.9321C37.0438 41.8252 35.293 41.6198 34.11 42.6844C33.6871 43.0638 33.24 43.5084 32.8098 44.0135C32.5623 44.3056 32.3806 44.6477 32.2772 45.0163C32.1738 45.385 32.151 45.7716 32.2105 46.1499C32.1042 45.3971 32.283 44.6274 32.8098 44.0111C33.2136 43.5401 33.648 43.096 34.11 42.6819C35.2942 41.6186 37.0438 41.8252 38.1869 42.9321C39.0098 43.7296 39.7239 44.4352 40.3293 45.0454C41.2061 45.919 42.0619 46.8134 42.8958 47.7279C42.8958 47.7279 43.5278 46.7468 45.014 44.6757C46.122 43.1302 47.7086 40.9782 49.863 38.1749C50.7596 37.0088 52.3039 36.5001 53.54 37.2988ZM44.457 2.79849C44.6022 2.64001 44.7871 2.52315 44.9926 2.45997C45.1981 2.39679 45.4167 2.38958 45.6259 2.43908C45.8351 2.48858 46.0274 2.593 46.1828 2.74157C46.3381 2.89013 46.4511 3.07746 46.5099 3.28424L48.3333 9.66665L54.7169 11.4912C54.9234 11.5503 55.1103 11.6634 55.2585 11.8188C55.4068 11.9741 55.5109 12.1662 55.5603 12.3752C55.6096 12.5841 55.6024 12.8025 55.5393 13.0078C55.4763 13.213 55.3596 13.3978 55.2015 13.543L50.141 18.1854C49.7497 18.5444 49.2843 18.8131 48.7778 18.9724C48.2712 19.1317 47.7359 19.1778 47.2095 19.1074L43.6425 18.6301L33.9602 27.2769C33.5234 27.6669 32.9539 27.8749 32.3685 27.8583C31.7832 27.8417 31.2264 27.6017 30.8124 27.1876C30.3984 26.7734 30.1587 26.2165 30.1423 25.6312C30.1259 25.0459 30.3341 24.4764 30.7243 24.0398L39.3699 14.3574L38.8926 10.7916C38.822 10.2651 38.868 9.7295 39.0273 9.22273C39.1866 8.71596 39.4554 8.25039 39.8145 7.85899L44.457 2.79849Z" fill="white"/>
<path fill-rule="evenodd" clip-rule="evenodd" d="M55.697 39.2225C56.509 40.2266 56.3289 41.6464 55.5785 42.6964C51.0787 48.9894 48.1135 52.7981 46.2635 55.0432C44.8014 56.8194 42.3267 57.0031 40.6037 55.477C37.9363 53.0987 35.4095 50.5674 33.0359 47.8959C32.045 46.7878 31.8445 45.1433 32.8087 44.0135C33.2401 43.5084 33.6872 43.0637 34.1101 42.6843C35.293 41.6198 37.0439 41.824 38.187 42.9308C41.3552 46.0012 42.8959 47.7291 42.8959 47.7291C42.8959 47.7291 44.8207 44.7361 49.8631 38.176C50.7597 37.01 52.304 36.5001 53.5401 37.3C54.3561 37.8228 55.0841 38.4717 55.697 39.2225Z" fill="#FFE500"/>
</svg>
