<svg width="48" height="48" viewBox="0 0 48 48" fill="none" xmlns="http://www.w3.org/2000/svg">
<path fill-rule="evenodd" clip-rule="evenodd" d="M2 0C0.89543 0 0 0.89543 0 2V34C0 35.1046 0.89543 36 2 36H8V46C8 46.809 8.48728 47.5382 9.23464 47.8478C9.98198 48.1574 10.8422 47.9862 11.4142 47.4142L22.8284 36H46C47.1046 36 48 35.1046 48 34V2C48 0.89543 47.1046 0 46 0H2ZM17.8905 16H16V12H20C21.1046 12 22 12.8954 22 14V14.4C22 18.5333 20.3872 22.4412 17.4142 25.4142L14.5858 22.5858C16.4209 20.7506 17.55 18.4639 17.8905 16ZM26 16H27.8906C27.55 18.4639 26.4208 20.7506 24.5858 22.5858L27.4142 25.4142C30.3872 22.4412 32 18.5333 32 14.4V14C32 12.8954 31.1046 12 30 12H26V16Z" fill="#FFE500"/>
</svg>
