<svg width="48" height="48" viewBox="0 0 48 48" fill="none" xmlns="http://www.w3.org/2000/svg">
<g clip-path="url(#clip0_214_605)">
<path d="M9 24.0637C9 22.66 9.59729 21.4568 10.5928 20.6547L32.8915 1.00244C34.4843 -0.40129 36.6743 -0.200757 38.068 1.40351C39.2626 3.00777 39.2626 5.21363 37.6698 6.41683L18.1584 23.6627C17.9593 23.8632 17.9593 24.0637 18.1584 24.2643L37.6698 41.5101C39.2626 42.9138 39.4617 45.1197 38.068 46.7239C36.6743 48.3282 34.4843 48.5287 32.8915 47.125C32.8915 47.125 32.8915 47.125 32.6924 46.9245L10.5928 27.4728C9.59729 26.6706 9 25.2669 9 24.0637Z" fill="#DEDEDE"/>
</g>
<defs>
<clipPath id="clip0_214_605">
<rect width="48" height="48" fill="white"/>
</clipPath>
</defs>
</svg>
