<svg width="565" height="256" fill="none" xmlns="http://www.w3.org/2000/svg"><g filter="url(#a)"><rect width="565" height="256" rx="25" fill="#fff" fill-opacity=".37"/></g><path opacity=".3" d="M20.665 201.253v8.727h-1.321v-7.406h-.052l-2.088 1.363v-1.261l2.178-1.423h1.283Zm5.999 8.872c-.674-.003-1.249-.181-1.726-.533-.477-.352-.842-.865-1.095-1.538-.253-.674-.38-1.485-.38-2.434 0-.946.127-1.754.38-2.424.255-.671.622-1.182 1.1-1.534.48-.353 1.053-.529 1.72-.529.668 0 1.24.178 1.718.533.477.352.842.864 1.095 1.534.256.668.384 1.474.384 2.42 0 .952-.127 1.765-.38 2.438-.252.67-.617 1.183-1.095 1.538-.477.353-1.05.529-1.721.529Zm0-1.138c.59 0 1.052-.288 1.385-.865.335-.577.503-1.411.503-2.502 0-.724-.077-1.336-.23-1.836-.151-.503-.368-.884-.652-1.142a1.424 1.424 0 0 0-1.006-.392c-.588 0-1.05.289-1.385.869-.335.58-.504 1.413-.507 2.501 0 .728.075 1.343.226 1.846.153.5.37.879.652 1.137.28.256.619.384 1.014.384Zm5.848 1.074a.83.83 0 0 1-.601-.247.827.827 0 0 1-.252-.606c0-.232.084-.431.252-.596a.819.819 0 0 1 .6-.252.82.82 0 0 1 .601.252.807.807 0 0 1 .252.596c0 .157-.04.3-.12.431a.883.883 0 0 1-.306.307.82.82 0 0 1-.426.115Zm5.398-8.808v8.727h-1.321v-7.406h-.051l-2.088 1.363v-1.261l2.177-1.423h1.283Zm3.08 8.727v-8.727h1.317v4.167h.106l3.66-4.167h1.658l-3.52 3.929 3.533 4.798H46.16l-2.82-3.899-1.032 1.184v2.715H40.99ZM56.959 230.974v-8.728h5.412v1.134h-4.095v2.659h3.707v1.129h-3.707v3.806h-1.317Zm7.631 0v-8.728h5.472v1.134h-4.155v2.659h3.87v1.129h-3.87v2.672h4.206v1.134H64.59Zm7.83 0v-8.728h3.197c.619 0 1.132.103 1.538.307.406.202.71.476.912.823.202.343.302.731.302 1.163 0 .364-.066.671-.2.921a1.644 1.644 0 0 1-.537.596 2.355 2.355 0 0 1-.733.324v.085c.29.014.573.108.848.281.279.171.509.414.69.729.182.316.273.699.273 1.151 0 .446-.105.846-.315 1.201-.207.353-.528.633-.963.84-.435.204-.99.307-1.666.307H72.42Zm1.317-1.13h1.9c.632 0 1.083-.122 1.356-.366.273-.244.41-.55.41-.916 0-.276-.07-.529-.21-.759a1.49 1.49 0 0 0-.596-.549 1.905 1.905 0 0 0-.912-.205h-1.948v2.795Zm0-3.822h1.764c.296 0 .562-.057.797-.17.239-.114.428-.273.567-.478.142-.207.213-.451.213-.733 0-.36-.126-.663-.38-.907-.252-.245-.64-.367-1.162-.367h-1.799v2.655Zm14.103-3.776v8.728h-1.321v-7.406h-.052l-2.088 1.363v-1.261l2.178-1.424h1.283Zm5.999 8.873c-.674-.003-1.249-.181-1.726-.533-.477-.352-.842-.865-1.095-1.538-.253-.674-.38-1.485-.38-2.434 0-.946.127-1.754.38-2.424.255-.671.622-1.182 1.1-1.534.48-.353 1.053-.529 1.72-.529.668 0 1.24.178 1.718.533.477.352.842.863 1.095 1.534.256.668.384 1.474.384 2.42 0 .952-.127 1.765-.38 2.438-.252.67-.617 1.183-1.095 1.538-.477.353-1.05.529-1.721.529Zm0-1.138c.59 0 1.052-.288 1.385-.865.335-.577.503-1.411.503-2.502 0-.724-.077-1.336-.23-1.836-.151-.503-.368-.884-.653-1.142a1.424 1.424 0 0 0-1.005-.392c-.588 0-1.05.289-1.385.869-.335.58-.504 1.413-.507 2.501 0 .728.075 1.343.226 1.846.153.5.37.879.652 1.137.28.256.619.384 1.014.384ZM136.959 230.974v-8.728h5.412v1.134h-4.095v2.659h3.707v1.129h-3.707v3.806h-1.317Zm7.631 0v-8.728h5.472v1.134h-4.155v2.659h3.869v1.129h-3.869v2.672h4.206v1.134h-5.523Zm7.831 0v-8.728h3.196c.619 0 1.132.103 1.538.307.406.202.71.476.912.823.202.343.302.731.302 1.163 0 .364-.066.671-.2.921a1.634 1.634 0 0 1-.537.596 2.35 2.35 0 0 1-.733.324v.085c.29.014.573.108.848.281.279.171.509.414.691.729.181.316.272.699.272 1.151 0 .446-.105.846-.315 1.201-.207.353-.528.633-.963.84-.435.204-.99.307-1.666.307h-3.345Zm1.316-1.13h1.901c.631 0 1.082-.122 1.355-.366.273-.244.409-.55.409-.916 0-.276-.07-.529-.209-.759a1.489 1.489 0 0 0-.596-.549 1.907 1.907 0 0 0-.912-.205h-1.948v2.795Zm0-3.822h1.764c.296 0 .562-.057.797-.17.239-.114.428-.273.567-.478.142-.207.213-.451.213-.733 0-.36-.126-.663-.379-.907-.253-.245-.641-.367-1.163-.367h-1.799v2.655Zm14.103-3.776v8.728h-1.321v-7.406h-.052l-2.088 1.363v-1.261l2.178-1.424h1.283Zm6.272 0v8.728h-1.322v-7.406h-.051l-2.088 1.363v-1.261l2.178-1.424h1.283ZM215.959 230.974v-8.728h5.412v1.134h-4.095v2.659h3.707v1.129h-3.707v3.806h-1.317Zm7.631 0v-8.728h5.472v1.134h-4.155v2.659h3.869v1.129h-3.869v2.672h4.206v1.134h-5.523Zm7.831 0v-8.728h3.196c.619 0 1.132.103 1.538.307.406.202.71.476.912.823.202.343.302.731.302 1.163 0 .364-.066.671-.2.921a1.634 1.634 0 0 1-.537.596 2.35 2.35 0 0 1-.733.324v.085c.29.014.573.108.848.281.279.171.509.414.691.729.181.316.272.699.272 1.151 0 .446-.105.846-.315 1.201-.207.353-.528.633-.963.84-.435.204-.99.307-1.666.307h-3.345Zm1.316-1.13h1.901c.631 0 1.082-.122 1.355-.366.273-.244.409-.55.409-.916 0-.276-.07-.529-.209-.759a1.489 1.489 0 0 0-.596-.549 1.907 1.907 0 0 0-.912-.205h-1.948v2.795Zm0-3.822h1.764c.296 0 .562-.057.797-.17.239-.114.428-.273.567-.478.142-.207.213-.451.213-.733 0-.36-.126-.663-.379-.907-.253-.245-.641-.367-1.163-.367h-1.799v2.655Zm14.103-3.776v8.728h-1.321v-7.406h-.052l-2.088 1.363v-1.261l2.178-1.424h1.283Zm2.96 8.728v-.955l2.954-3.059c.315-.333.575-.624.779-.874.208-.253.363-.493.465-.72a1.75 1.75 0 0 0 .153-.725c0-.289-.068-.539-.204-.75a1.345 1.345 0 0 0-.559-.49 1.776 1.776 0 0 0-.796-.174c-.313 0-.586.064-.819.191a1.314 1.314 0 0 0-.536.542 1.703 1.703 0 0 0-.188.818h-1.257c0-.532.122-.996.366-1.394.245-.397.58-.706 1.006-.924a3.1 3.1 0 0 1 1.453-.333c.548 0 1.031.11 1.449.328.421.216.749.512.984.887.236.372.354.792.354 1.261 0 .324-.061.641-.183.95-.119.31-.328.655-.627 1.036-.298.378-.713.836-1.244 1.376l-1.734 1.816v.063h3.929v1.13H249.8ZM296.959 230.974v-8.728h5.412v1.134h-4.095v2.659h3.707v1.129h-3.707v3.806h-1.317Zm7.631 0v-8.728h5.472v1.134h-4.155v2.659h3.869v1.129h-3.869v2.672h4.206v1.134h-5.523Zm7.831 0v-8.728h3.196c.619 0 1.132.103 1.538.307.406.202.71.476.912.823.202.343.302.731.302 1.163 0 .364-.066.671-.2.921a1.634 1.634 0 0 1-.537.596 2.35 2.35 0 0 1-.733.324v.085c.29.014.573.108.848.281.279.171.509.414.691.729.181.316.272.699.272 1.151 0 .446-.105.846-.315 1.201-.207.353-.528.633-.963.84-.435.204-.99.307-1.666.307h-3.345Zm1.316-1.13h1.901c.631 0 1.082-.122 1.355-.366.273-.244.409-.55.409-.916 0-.276-.07-.529-.209-.759a1.489 1.489 0 0 0-.596-.549 1.907 1.907 0 0 0-.912-.205h-1.948v2.795Zm0-3.822h1.764c.296 0 .562-.057.797-.17.239-.114.428-.273.567-.478.142-.207.213-.451.213-.733 0-.36-.126-.663-.379-.907-.253-.245-.641-.367-1.163-.367h-1.799v2.655Zm14.103-3.776v8.728h-1.321v-7.406h-.052l-2.088 1.363v-1.261l2.178-1.424h1.283Zm5.999 8.847c-.585 0-1.108-.101-1.568-.302a2.661 2.661 0 0 1-1.087-.84 2.23 2.23 0 0 1-.426-1.253h1.338c.017.259.104.483.26.673.159.188.366.333.622.435.256.102.54.154.852.154.344 0 .648-.06.912-.179.267-.12.476-.286.627-.499.15-.216.225-.464.225-.746 0-.292-.075-.549-.225-.771a1.469 1.469 0 0 0-.652-.528c-.284-.128-.628-.192-1.032-.192h-.737v-1.074h.737c.324 0 .608-.058.853-.175.247-.116.44-.278.579-.486.139-.21.209-.456.209-.737 0-.27-.061-.504-.183-.703a1.235 1.235 0 0 0-.512-.473 1.653 1.653 0 0 0-.775-.17c-.284 0-.55.052-.797.157-.244.103-.443.25-.597.443a1.148 1.148 0 0 0-.247.687h-1.274c.014-.472.153-.887.418-1.245a2.693 2.693 0 0 1 1.056-.839 3.44 3.44 0 0 1 1.458-.303c.56 0 1.042.11 1.449.328.409.216.724.505.946.865.224.361.335.756.332 1.185.003.489-.133.903-.409 1.244a1.98 1.98 0 0 1-1.091.686v.069c.58.088 1.029.318 1.347.69.321.372.48.834.477 1.385.003.48-.131.91-.401 1.291-.267.381-.632.68-1.095.899-.463.216-.993.324-1.589.324ZM376.959 230.974v-8.728h5.412v1.134h-4.095v2.659h3.707v1.129h-3.707v3.806h-1.317Zm7.631 0v-8.728h5.472v1.134h-4.155v2.659h3.869v1.129h-3.869v2.672h4.206v1.134h-5.523Zm7.831 0v-8.728h3.196c.619 0 1.132.103 1.538.307.406.202.71.476.912.823.202.343.302.731.302 1.163 0 .364-.066.671-.2.921a1.634 1.634 0 0 1-.537.596 2.35 2.35 0 0 1-.733.324v.085c.29.014.573.108.848.281.279.171.509.414.691.729.181.316.272.699.272 1.151 0 .446-.105.846-.315 1.201-.207.353-.528.633-.963.84-.435.204-.99.307-1.666.307h-3.345Zm1.316-1.13h1.901c.631 0 1.082-.122 1.355-.366.273-.244.409-.55.409-.916 0-.276-.07-.529-.209-.759a1.489 1.489 0 0 0-.596-.549 1.907 1.907 0 0 0-.912-.205h-1.948v2.795Zm0-3.822h1.764c.296 0 .562-.057.797-.17.239-.114.428-.273.567-.478.142-.207.213-.451.213-.733 0-.36-.126-.663-.379-.907-.253-.245-.641-.367-1.163-.367h-1.799v2.655Zm14.103-3.776v8.728h-1.321v-7.406h-.052l-2.088 1.363v-1.261l2.178-1.424h1.283Zm2.777 7.023v-1.065l3.771-5.958h.84v1.569h-.533l-2.697 4.27v.068h5.169v1.116h-6.55Zm4.138 1.705v-2.029l.008-.485v-6.214h1.249v8.728h-1.257ZM20.227 160.264v8.728h-1.32v-7.407h-.052l-2.088 1.364v-1.261l2.178-1.424h1.282Zm5.842 8.847a3.28 3.28 0 0 1-1.44-.307 2.612 2.612 0 0 1-1.015-.852 2.252 2.252 0 0 1-.405-1.236h1.279c.03.375.197.683.498.925a1.68 1.68 0 0 0 1.083.362c.335 0 .632-.077.89-.23a1.65 1.65 0 0 0 .614-.644c.15-.272.226-.583.226-.933 0-.355-.077-.672-.23-.95a1.693 1.693 0 0 0-.635-.656 1.796 1.796 0 0 0-.92-.243c-.265 0-.53.045-.798.136a1.85 1.85 0 0 0-.647.358l-1.206-.179.49-4.398h4.798v1.13h-3.703l-.277 2.441h.051a2.05 2.05 0 0 1 .678-.413c.284-.111.588-.166.912-.166a2.67 2.67 0 0 1 2.403 1.415c.241.434.36.934.358 1.5a2.914 2.914 0 0 1-.384 1.512c-.255.444-.61.793-1.065 1.049-.452.253-.97.379-1.555.379Zm5.7-.038a.827.827 0 0 1-.6-.248.823.823 0 0 1-.252-.605c0-.233.084-.432.252-.596a.82.82 0 0 1 .6-.252c.233 0 .434.084.601.252a.804.804 0 0 1 .252.596c0 .157-.04.3-.12.431a.883.883 0 0 1-.306.307.819.819 0 0 1-.426.115Zm3.142-.081v-.955l2.953-3.06c.316-.332.576-.623.78-.873.208-.253.363-.493.465-.72.102-.228.153-.469.153-.725 0-.29-.068-.54-.204-.75a1.34 1.34 0 0 0-.559-.49 1.781 1.781 0 0 0-.796-.175c-.313 0-.586.064-.819.192a1.314 1.314 0 0 0-.537.541 1.707 1.707 0 0 0-.187.819h-1.257c0-.532.122-.996.366-1.394a2.49 2.49 0 0 1 1.006-.925 3.11 3.11 0 0 1 1.453-.332c.548 0 1.031.109 1.449.328.42.216.749.512.984.887.236.372.354.792.354 1.261 0 .324-.061.64-.183.95-.12.31-.328.655-.627 1.036a17.69 17.69 0 0 1-1.244 1.376l-1.734 1.815v.064h3.929v1.13H34.91Zm8.08 0v-8.728h1.316v4.168h.106l3.66-4.168h1.658l-3.52 3.929 3.533 4.799H48.16l-2.82-3.9-1.032 1.185v2.715H42.99ZM15.865 128.003v-.954l2.953-3.06c.316-.332.576-.623.78-.873.208-.253.362-.493.465-.721a1.74 1.74 0 0 0 .153-.724c0-.29-.068-.54-.204-.75a1.34 1.34 0 0 0-.559-.49 1.768 1.768 0 0 0-.796-.175c-.313 0-.586.064-.819.192a1.314 1.314 0 0 0-.537.541 1.706 1.706 0 0 0-.187.818h-1.257c0-.531.122-.995.366-1.393a2.49 2.49 0 0 1 1.006-.925 3.11 3.11 0 0 1 1.453-.332c.548 0 1.031.109 1.449.328.42.216.748.511.984.886.236.372.354.793.354 1.262 0 .324-.061.64-.183.95-.12.31-.328.655-.627 1.035-.298.378-.713.837-1.244 1.377l-1.734 1.815v.064h3.929v1.129h-5.745Zm10.998.145c-.673-.003-1.249-.18-1.726-.532-.477-.353-.842-.865-1.095-1.539-.253-.673-.38-1.484-.38-2.433 0-.946.127-1.754.38-2.425.256-.67.622-1.181 1.1-1.534.48-.352 1.053-.528 1.721-.528.668 0 1.24.177 1.717.532.478.353.843.864 1.096 1.535.255.667.383 1.474.383 2.42 0 .952-.126 1.764-.38 2.438-.252.67-.617 1.183-1.094 1.538-.478.352-1.052.528-1.722.528Zm0-1.137c.59 0 1.053-.289 1.385-.866.335-.576.503-1.41.503-2.501 0-.724-.077-1.337-.23-1.837-.15-.502-.368-.883-.652-1.142a1.428 1.428 0 0 0-1.006-.392c-.588 0-1.05.29-1.385.87-.335.579-.504 1.413-.507 2.501 0 .727.075 1.342.226 1.845.153.5.37.879.652 1.138.281.256.62.384 1.014.384Zm5.848 1.073a.826.826 0 0 1-.601-.247.823.823 0 0 1-.251-.605c0-.233.083-.432.251-.596a.82.82 0 0 1 .6-.252c.234 0 .434.084.602.252a.804.804 0 0 1 .251.596c0 .156-.04.3-.12.431a.88.88 0 0 1-.306.306.81.81 0 0 1-.426.115Zm5.864.039c-.586 0-1.108-.101-1.569-.303a2.662 2.662 0 0 1-1.086-.839 2.231 2.231 0 0 1-.426-1.253h1.338c.017.258.103.483.26.673.159.188.366.333.622.435.256.102.54.153.852.153.344 0 .648-.059.912-.179.267-.119.476-.285.627-.498.15-.216.225-.465.225-.746 0-.293-.075-.55-.225-.771a1.47 1.47 0 0 0-.652-.529c-.285-.128-.628-.192-1.032-.192h-.737v-1.073h.737c.324 0 .608-.059.853-.175.247-.117.44-.279.58-.486.138-.21.208-.456.208-.737 0-.27-.061-.504-.183-.703-.12-.202-.29-.36-.512-.473a1.656 1.656 0 0 0-.775-.171c-.284 0-.55.053-.797.158a1.47 1.47 0 0 0-.597.443 1.14 1.14 0 0 0-.247.686h-1.274c.014-.471.153-.886.418-1.244.267-.358.619-.638 1.056-.84a3.45 3.45 0 0 1 1.458-.302c.56 0 1.042.109 1.449.328.409.216.724.504.946.865.224.361.335.756.332 1.185.003.488-.133.903-.409 1.244a1.98 1.98 0 0 1-1.09.686v.068c.579.088 1.027.318 1.346.691.32.372.48.833.477 1.385.003.48-.13.91-.4 1.291-.268.38-.633.68-1.096.899-.463.216-.993.324-1.59.324Zm5.415-.12v-8.727h1.317v4.168h.106l3.66-4.168h1.658l-3.52 3.929 3.533 4.798H49.16l-2.82-3.899-1.032 1.185v2.714H43.99ZM19.095 87.135c-.585 0-1.108-.101-1.568-.303a2.661 2.661 0 0 1-1.087-.84 2.228 2.228 0 0 1-.426-1.252h1.338c.017.258.104.483.26.673.16.188.367.332.622.435.256.102.54.153.852.153.344 0 .648-.06.912-.179a1.49 1.49 0 0 0 .627-.499c.15-.215.226-.464.226-.745 0-.293-.076-.55-.226-.772a1.472 1.472 0 0 0-.652-.528c-.284-.128-.628-.192-1.031-.192h-.738v-1.074h.738c.323 0 .608-.058.852-.174.247-.117.44-.279.58-.486.139-.21.208-.456.208-.737 0-.27-.06-.505-.183-.703a1.23 1.23 0 0 0-.511-.473 1.66 1.66 0 0 0-.776-.17c-.284 0-.55.052-.797.157a1.47 1.47 0 0 0-.596.443 1.14 1.14 0 0 0-.248.686h-1.274c.015-.472.154-.886.418-1.244.267-.358.62-.638 1.057-.84a3.44 3.44 0 0 1 1.457-.302c.56 0 1.043.109 1.449.328.41.216.724.504.946.865.224.36.335.756.332 1.184.003.49-.133.904-.409 1.245-.272.34-.636.57-1.09.686v.068c.579.088 1.028.318 1.346.69.321.373.48.834.477 1.385.003.48-.13.91-.4 1.292-.267.38-.632.68-1.096.899-.463.216-.992.324-1.589.324Zm8.334.025c-.673-.003-1.248-.18-1.725-.532-.478-.353-.843-.866-1.096-1.539-.253-.673-.379-1.484-.379-2.433 0-.946.127-1.754.38-2.425.255-.67.621-1.182 1.099-1.534.48-.352 1.054-.528 1.721-.528.668 0 1.24.177 1.718.532.477.353.842.864 1.095 1.534.256.668.383 1.475.383 2.42 0 .953-.126 1.765-.379 2.438-.253.67-.618 1.184-1.095 1.539-.477.352-1.051.528-1.722.528Zm0-1.138c.591 0 1.053-.288 1.385-.865.336-.576.503-1.41.503-2.501 0-.725-.076-1.337-.23-1.837-.15-.503-.368-.883-.652-1.142a1.427 1.427 0 0 0-1.006-.392c-.588 0-1.05.29-1.384.87-.336.579-.505 1.413-.508 2.5 0 .728.076 1.343.226 1.846.154.5.37.88.652 1.138.281.255.62.383 1.014.383Zm5.848 1.074a.827.827 0 0 1-.6-.247.825.825 0 0 1-.252-.605c0-.233.084-.432.251-.597a.82.82 0 0 1 .601-.251.82.82 0 0 1 .601.251.806.806 0 0 1 .252.597c0 .156-.04.3-.12.43a.881.881 0 0 1-.307.307.812.812 0 0 1-.426.115Zm2.959-1.785v-1.066l3.771-5.957h.84v1.568h-.533l-2.697 4.27v.068h5.169v1.117h-6.55Zm4.138 1.704v-2.028l.008-.486v-6.213h1.249v8.727h-1.257Zm4.616 0v-8.727h1.317v4.168h.106l3.66-4.168h1.658l-3.52 3.929 3.533 4.798H50.16l-2.82-3.899-1.032 1.185v2.714H44.99ZM16.307 44.322v-1.065l3.771-5.957h.84v1.568h-.533l-2.697 4.27v.068h5.169v1.116h-6.55Zm4.138 1.705V44l.008-.486V37.3h1.249v8.727h-1.257Zm7.535.145c-.673-.003-1.248-.18-1.726-.533-.477-.352-.842-.865-1.095-1.538s-.38-1.484-.38-2.433c0-.946.127-1.755.38-2.425.256-.67.622-1.182 1.1-1.534.48-.352 1.054-.529 1.721-.529.668 0 1.24.178 1.718.533.477.352.842.864 1.095 1.534.255.668.383 1.475.383 2.42 0 .952-.126 1.765-.38 2.438-.252.67-.617 1.183-1.094 1.539-.478.352-1.051.528-1.722.528Zm0-1.138c.591 0 1.053-.288 1.385-.865.335-.577.503-1.41.503-2.501 0-.725-.077-1.337-.23-1.837-.15-.503-.368-.884-.652-1.142a1.427 1.427 0 0 0-1.006-.392c-.588 0-1.05.29-1.385.87-.335.579-.504 1.413-.507 2.5 0 .728.075 1.343.226 1.846.153.5.37.88.652 1.138.281.255.62.383 1.014.383Zm5.848 1.074a.827.827 0 0 1-.6-.247.825.825 0 0 1-.252-.605c0-.233.084-.432.251-.597a.82.82 0 0 1 .601-.251.82.82 0 0 1 .6.251.806.806 0 0 1 .252.597c0 .156-.04.3-.119.43a.882.882 0 0 1-.307.307.813.813 0 0 1-.426.115Zm5.882.038a3.287 3.287 0 0 1-1.44-.306 2.617 2.617 0 0 1-1.015-.853 2.25 2.25 0 0 1-.404-1.236h1.278c.031.376.198.684.499.925.3.242.662.362 1.082.362.335 0 .632-.076.89-.23.262-.156.466-.37.614-.643a1.9 1.9 0 0 0 .226-.933c0-.355-.077-.672-.23-.95a1.698 1.698 0 0 0-.635-.657 1.793 1.793 0 0 0-.92-.243c-.265 0-.53.046-.797.137-.267.09-.483.21-.648.358l-1.206-.18.49-4.397h4.798v1.13H38.59l-.277 2.44h.051c.17-.164.397-.302.678-.412.284-.111.588-.167.912-.167a2.671 2.671 0 0 1 2.403 1.415c.242.435.361.935.358 1.5a2.917 2.917 0 0 1-.383 1.513c-.256.443-.611.792-1.066 1.048-.451.253-.97.38-1.555.38Zm5.28-.119V37.3h1.317v4.167h.106l3.66-4.167h1.658l-3.52 3.929 3.533 4.798H50.16l-2.82-3.9-1.032 1.186v2.714H44.99Z" fill="#263238"/><path opacity=".15" stroke="#474747" stroke-width=".372" stroke-dasharray="6 6" d="M56.016 80.558h496.887v.372H56.016zM56.016 121.488h496.887v.372H56.016zM56.016 162.419h496.887v.372H56.016zM56.016 203.349h496.887v.372H56.016zM56.016 39.628h496.887V40H56.016z"/><path opacity=".5" stroke="#FF3642" stroke-width=".372" d="M56.016 169.861h496.887v.372H56.016z"/><path d="m72.579 196.465-14.144 6.698h487.583V18.233l-37.965 14.883-10.421-7.07-40.942 28.28-7.817 4.093-9.677-4.093-16.749 42.418h-10.794l-9.677 11.163-2.233 12.279h-9.305l-4.839-3.349-14.888 5.582-32.753-32-10.05-6.326-10.793-6.698-27.171 16.373-24.193 2.976-5.583 8.558-10.049 6.326-10.422-6.326-5.955-3.721-6.7 3.721-42.431 33.861h-22.332l-8.933 2.232-8.56-2.232-8.189-4.465h-10.793l-22.332 51.349-9.678-3.721-8.56 10.418-12.655 3.721Z" fill="url(#b)"/><path d="m58.435 203.163 14.144-6.698 12.655-3.721 8.56-10.418 9.678 3.721 22.332-51.349h10.793l8.189 4.465 8.56 2.232 8.933-2.232h22.332l42.431-33.861 6.7-3.721 5.955 3.721 10.422 6.326 10.049-6.326 5.583-8.558 24.193-2.977 27.171-16.372 10.793 6.698 10.05 6.326 32.753 32 14.888-5.582 4.839 3.349h9.305l2.233-12.279 9.677-11.163h10.794l16.749-42.418 9.677 4.093 7.817-4.093 40.942-28.28 10.421 7.07 37.965-14.883" stroke="url(#c)" stroke-width="2"/><g filter="url(#d)"><rect x="437" y="211.976" width="112" height="24.993" rx="2" fill="#fff" fill-opacity=".15" shape-rendering="crispEdges"/><path d="M444.672 229.972V219.79h6.313v1.323h-4.777v3.102h4.325v1.318h-4.325v4.439h-1.536Zm11.514.154c-.752 0-1.4-.16-1.944-.482a3.272 3.272 0 0 1-1.253-1.367c-.291-.59-.437-1.281-.437-2.073 0-.782.146-1.472.437-2.068a3.39 3.39 0 0 1 1.233-1.397c.531-.335 1.15-.503 1.86-.503.43 0 .848.072 1.252.214a3.03 3.03 0 0 1 1.089.671c.322.305.575.701.761 1.189.185.483.278 1.072.278 1.764v.527h-6.07v-1.113h4.614c0-.391-.08-.738-.239-1.039a1.808 1.808 0 0 0-.671-.721 1.873 1.873 0 0 0-1.004-.264c-.418 0-.783.103-1.094.309a2.069 2.069 0 0 0-.716.795 2.294 2.294 0 0 0-.249 1.059v.87c0 .51.09.945.269 1.303.182.358.436.631.76.82.325.186.705.278 1.139.278.282 0 .538-.039.771-.119a1.67 1.67 0 0 0 .601-.368c.169-.162.298-.363.388-.601l1.407.253a2.554 2.554 0 0 1-.607 1.089 2.945 2.945 0 0 1-1.089.721c-.434.169-.929.253-1.486.253Zm5.745-.154V219.79h1.486v3.784h.09c.086-.159.21-.343.373-.552.162-.209.388-.391.676-.547.288-.159.669-.239 1.143-.239a2.98 2.98 0 0 1 1.651.468c.484.311.863.76 1.138 1.347.279.587.418 1.293.418 2.118s-.137 1.533-.413 2.123c-.275.586-.653 1.039-1.133 1.357a2.935 2.935 0 0 1-1.646.472c-.464 0-.843-.078-1.138-.233a2.143 2.143 0 0 1-.686-.547 4.11 4.11 0 0 1-.383-.557h-.124v1.188h-1.452Zm1.457-3.818c0 .537.077 1.008.233 1.412.156.404.381.721.676.949.295.226.657.339 1.084.339.444 0 .816-.118 1.114-.353.298-.239.524-.562.676-.97.156-.408.234-.867.234-1.377 0-.504-.077-.956-.229-1.357a2.082 2.082 0 0 0-.676-.95c-.298-.232-.671-.348-1.119-.348-.431 0-.795.111-1.094.333-.295.222-.518.532-.671.93-.152.398-.228.862-.228 1.392Zm16.135-6.364v10.182h-1.541v-8.64h-.059l-2.437 1.59v-1.471l2.541-1.661h1.496Zm6.815 10.321c-.623 0-1.183-.119-1.68-.358a3.051 3.051 0 0 1-1.183-.994 2.617 2.617 0 0 1-.472-1.442h1.491c.036.438.23.797.582 1.079.351.282.772.423 1.262.423a2 2 0 0 0 1.04-.269c.304-.182.543-.432.715-.75.176-.319.264-.682.264-1.089 0-.414-.09-.784-.269-1.109a1.972 1.972 0 0 0-.74-.765 2.088 2.088 0 0 0-1.074-.284c-.308 0-.618.053-.93.159a2.163 2.163 0 0 0-.756.418l-1.407-.209.572-5.131h5.598v1.318h-4.32l-.323 2.849h.059a2.38 2.38 0 0 1 .791-.483 2.906 2.906 0 0 1 1.064-.194c.62 0 1.171.148 1.655.443.488.295.87.698 1.149 1.208.282.507.421 1.09.417 1.75.004.66-.145 1.248-.447 1.765a3.239 3.239 0 0 1-1.243 1.223c-.527.295-1.132.442-1.815.442Zm7.606-1.531-.075.542a8.654 8.654 0 0 1-.253 1.243c-.116.434-.237.837-.363 1.208-.123.371-.224.666-.303.885h-1.054c.043-.206.102-.484.179-.835.076-.348.15-.738.223-1.169.073-.43.128-.87.164-1.317l.05-.557h1.432Zm10.565 1.561c-.785-.003-1.457-.21-2.013-.621-.557-.411-.983-1.009-1.278-1.795-.295-.786-.443-1.732-.443-2.839 0-1.103.148-2.046.443-2.829.298-.782.726-1.378 1.283-1.789.56-.411 1.229-.617 2.008-.617.779 0 1.447.207 2.004.622.556.411.982 1.007 1.277 1.789.299.779.448 1.721.448 2.824 0 1.111-.148 2.058-.443 2.844-.295.782-.721 1.38-1.277 1.795-.557.411-1.227.616-2.009.616Zm0-1.327c.69 0 1.228-.337 1.616-1.009.391-.673.587-1.646.587-2.919 0-.845-.09-1.559-.269-2.143-.176-.586-.429-1.03-.761-1.332a1.663 1.663 0 0 0-1.173-.457c-.686 0-1.225.338-1.616 1.014-.391.676-.588 1.649-.591 2.918 0 .849.088 1.566.263 2.153.179.583.433 1.026.761 1.327.328.299.722.448 1.183.448Zm6.192 1.158v-1.113l3.446-3.57c.368-.388.671-.728.91-1.019.242-.295.422-.575.541-.84a2.03 2.03 0 0 0 .179-.846c0-.338-.079-.629-.238-.875a1.557 1.557 0 0 0-.651-.571 2.073 2.073 0 0 0-.93-.204c-.365 0-.683.074-.955.224-.271.149-.48.359-.626.631-.146.272-.219.59-.219.954h-1.466c0-.619.142-1.161.427-1.625a2.903 2.903 0 0 1 1.173-1.079c.498-.259 1.063-.388 1.696-.388.639 0 1.203.128 1.69.383.491.252.873.597 1.148 1.034.276.434.413.925.413 1.472 0 .377-.071.747-.214 1.108-.139.362-.382.764-.73 1.208-.348.441-.832.976-1.452 1.606l-2.024 2.118v.075h4.584v1.317h-6.702Zm10.286-1.263a.964.964 0 0 1-.701-.288.962.962 0 0 1-.294-.706c0-.272.098-.504.294-.696a.953.953 0 0 1 .701-.293c.271 0 .505.097.701.293a.941.941 0 0 1 .293.696c0 .182-.046.35-.139.502-.09.149-.209.269-.358.358a.943.943 0 0 1-.497.134Zm0-5.1a.965.965 0 0 1-.701-.289.96.96 0 0 1-.294-.706c0-.272.098-.504.294-.696a.957.957 0 0 1 .701-.293.96.96 0 0 1 .701.293.941.941 0 0 1 .293.696c0 .183-.046.35-.139.502-.09.149-.209.269-.358.358a.944.944 0 0 1-.497.135Zm7.21 6.532c-.786-.003-1.457-.21-2.013-.621-.557-.411-.983-1.009-1.278-1.795-.295-.786-.443-1.732-.443-2.839 0-1.103.148-2.046.443-2.829.298-.782.726-1.378 1.282-1.789.561-.411 1.23-.617 2.009-.617.779 0 1.447.207 2.004.622.556.411.982 1.007 1.277 1.789.299.779.448 1.721.448 2.824 0 1.111-.148 2.058-.443 2.844-.295.782-.721 1.38-1.277 1.795-.557.411-1.227.616-2.009.616Zm0-1.327c.689 0 1.228-.337 1.616-1.009.391-.673.586-1.646.586-2.919 0-.845-.089-1.559-.268-2.143-.176-.586-.429-1.03-.761-1.332a1.663 1.663 0 0 0-1.173-.457c-.686 0-1.225.338-1.616 1.014-.391.676-.588 1.649-.591 2.918 0 .849.087 1.566.263 2.153.179.583.433 1.026.761 1.327.328.299.722.448 1.183.448Zm9.737 1.327c-.785-.003-1.457-.21-2.013-.621-.557-.411-.983-1.009-1.278-1.795-.295-.786-.443-1.732-.443-2.839 0-1.103.148-2.046.443-2.829.298-.782.726-1.378 1.283-1.789.56-.411 1.229-.617 2.008-.617.779 0 1.447.207 2.004.622.556.411.982 1.007 1.277 1.789.299.779.448 1.721.448 2.824 0 1.111-.148 2.058-.443 2.844-.295.782-.721 1.38-1.277 1.795-.557.411-1.227.616-2.009.616Zm0-1.327c.689 0 1.228-.337 1.616-1.009.391-.673.587-1.646.587-2.919 0-.845-.09-1.559-.269-2.143-.176-.586-.429-1.03-.761-1.332a1.663 1.663 0 0 0-1.173-.457c-.686 0-1.225.338-1.616 1.014-.391.676-.588 1.649-.591 2.918 0 .849.088 1.566.263 2.153.179.583.433 1.026.761 1.327.328.299.722.448 1.183.448Z" fill="#FFE500"/></g><path fill="#47A663" d="M507.681 11.163h.744v192h-.744z"/><ellipse cx="507.681" cy="32.744" rx="5.955" ry="5.953" fill="#47A663"/><ellipse cx="507.681" cy="32.744" rx="2.978" ry="2.977" fill="#fff"/><g filter="url(#e)"><rect x="348" y="16.032" width="142" height="75.978" rx="4" fill="url(#f)" shape-rendering="crispEdges"/><path opacity=".5" d="M364.528 34.438v-1.133h6.755v1.133h-2.723v7.594h-1.313V34.44h-2.719Zm10.553 7.726c-.614 0-1.149-.14-1.607-.422a2.848 2.848 0 0 1-1.065-1.18c-.253-.506-.379-1.096-.379-1.773 0-.679.126-1.272.379-1.78a2.842 2.842 0 0 1 1.065-1.185c.458-.282.993-.422 1.607-.422.613 0 1.149.14 1.606.422.458.28.813.676 1.066 1.184.253.509.379 1.102.379 1.781 0 .676-.126 1.267-.379 1.773s-.608.9-1.066 1.18c-.457.282-.993.422-1.606.422Zm.004-1.07c.398 0 .727-.104.989-.315.261-.21.454-.49.579-.84.128-.349.192-.733.192-1.154 0-.417-.064-.801-.192-1.15a1.877 1.877 0 0 0-.579-.849c-.262-.213-.591-.32-.989-.32-.4 0-.733.107-.997.32a1.91 1.91 0 0 0-.584.849c-.125.349-.187.733-.187 1.15 0 .42.062.806.187 1.155.128.35.323.63.584.84.264.21.597.315.997.315Zm8.125-5.607v1.023h-3.576v-1.023h3.576Zm-2.617-1.568h1.274v6.191c0 .248.037.434.111.559a.577.577 0 0 0 .286.251c.119.043.248.064.387.064.103 0 .192-.007.269-.021l.179-.034.23 1.052a2.504 2.504 0 0 1-.827.136 2.24 2.24 0 0 1-.937-.179 1.607 1.607 0 0 1-.703-.579c-.179-.261-.269-.59-.269-.984v-6.456Zm6.531 8.258c-.415 0-.79-.077-1.125-.23a1.897 1.897 0 0 1-.797-.678c-.193-.295-.29-.657-.29-1.086 0-.37.071-.673.213-.912a1.57 1.57 0 0 1 .576-.567c.241-.14.511-.244.809-.315.299-.071.602-.125.912-.162l.955-.11c.244-.032.422-.082.532-.15.111-.068.167-.18.167-.332v-.03c0-.372-.106-.66-.316-.865-.207-.205-.517-.307-.929-.307-.429 0-.767.095-1.014.285a1.531 1.531 0 0 0-.507.627l-1.198-.273c.143-.398.35-.719.623-.963.275-.247.592-.426.95-.537.358-.114.734-.17 1.129-.17.262 0 .539.03.831.093.296.06.571.17.827.333.258.162.47.393.635.694.165.299.247.686.247 1.164v4.346h-1.244v-.895h-.051a1.824 1.824 0 0 1-.371.486c-.165.16-.377.291-.635.397a2.465 2.465 0 0 1-.929.157Zm.277-1.023c.352 0 .653-.07.903-.208.253-.14.445-.321.576-.546.133-.227.2-.47.2-.728v-.844a.671.671 0 0 1-.264.128c-.128.036-.275.07-.439.098-.165.025-.326.05-.482.072l-.392.051a3.155 3.155 0 0 0-.677.158c-.202.074-.364.18-.486.32-.12.136-.179.318-.179.545 0 .315.116.554.349.716.233.159.53.238.891.238Zm6.524-7.849v8.727h-1.274v-8.727h1.274Zm6.09 11.182v-9h1.244v1.06h.107c.074-.136.18-.293.32-.472.139-.18.332-.335.579-.469.247-.136.574-.204.98-.204.529 0 1 .133 1.415.4.415.267.74.652.976 1.155.239.503.358 1.108.358 1.815 0 .708-.118 1.314-.354 1.82-.236.503-.56.89-.971 1.163-.412.27-.883.405-1.411.405-.398 0-.723-.067-.976-.2a1.847 1.847 0 0 1-.588-.469 3.58 3.58 0 0 1-.328-.477h-.077v3.473h-1.274Zm1.249-5.727c0 .46.066.863.2 1.21.134.346.327.618.58.814.252.193.562.29.929.29.38 0 .698-.101.954-.303.256-.205.449-.482.58-.831.133-.35.2-.743.2-1.18 0-.432-.065-.82-.196-1.164a1.779 1.779 0 0 0-.58-.814c-.255-.199-.575-.298-.958-.298-.37 0-.682.095-.938.285-.253.19-.445.456-.575.797a3.318 3.318 0 0 0-.196 1.194Zm9.514 3.404c-.613 0-1.149-.14-1.606-.422a2.841 2.841 0 0 1-1.065-1.18c-.253-.506-.38-1.096-.38-1.773 0-.679.127-1.272.38-1.78a2.835 2.835 0 0 1 1.065-1.185c.457-.282.993-.422 1.606-.422.614 0 1.15.14 1.607.422.457.28.813.676 1.065 1.184.253.509.38 1.102.38 1.781 0 .676-.127 1.267-.38 1.773-.252.506-.608.9-1.065 1.18-.457.282-.993.422-1.607.422Zm.005-1.07c.397 0 .727-.104.988-.315.262-.21.455-.49.58-.84.128-.349.192-.733.192-1.154 0-.417-.064-.801-.192-1.15a1.87 1.87 0 0 0-.58-.849c-.261-.213-.591-.32-.988-.32-.401 0-.733.107-.997.32a1.901 1.901 0 0 0-.584.849c-.125.349-.188.733-.188 1.15 0 .42.063.806.188 1.155.128.35.322.63.584.84.264.21.596.315.997.315Zm5.069.938v-6.545h1.231v1.04h.069a1.58 1.58 0 0 1 .63-.831 1.806 1.806 0 0 1 1.031-.307 5.437 5.437 0 0 1 .542.03v1.218a2.264 2.264 0 0 0-.273-.047 2.6 2.6 0 0 0-.392-.03c-.301 0-.57.065-.805.192a1.422 1.422 0 0 0-.759 1.283v3.997h-1.274Zm8.647-6.545v1.023h-3.575v-1.023h3.575Zm-2.616-1.568h1.274v6.191c0 .248.037.434.111.559a.58.58 0 0 0 .285.251c.12.043.249.064.388.064.102 0 .192-.007.269-.021l.179-.034.23 1.052a2.138 2.138 0 0 1-.316.085 2.486 2.486 0 0 1-.511.051 2.24 2.24 0 0 1-.937-.178 1.61 1.61 0 0 1-.704-.58c-.179-.261-.268-.59-.268-.984v-6.456Zm7.741 1.568v1.023h-3.699v-1.023h3.699Zm-2.685 6.545v-7.304c0-.409.09-.748.269-1.018.179-.273.416-.476.711-.61.296-.136.617-.204.963-.204.256 0 .475.021.657.064.182.04.316.076.405.11l-.299 1.032a5.511 5.511 0 0 0-.23-.06 1.31 1.31 0 0 0-.341-.038c-.309 0-.531.077-.665.23-.13.153-.196.375-.196.665v7.133h-1.274Zm7.099.132c-.614 0-1.149-.14-1.607-.422a2.848 2.848 0 0 1-1.065-1.18c-.253-.506-.379-1.096-.379-1.773 0-.679.126-1.272.379-1.78a2.842 2.842 0 0 1 1.065-1.185c.458-.282.993-.422 1.607-.422.613 0 1.149.14 1.606.422.458.28.813.676 1.066 1.184.253.509.379 1.102.379 1.781 0 .676-.126 1.267-.379 1.773s-.608.9-1.066 1.18c-.457.282-.993.422-1.606.422Zm.004-1.07c.398 0 .727-.104.989-.315.261-.21.454-.49.579-.84.128-.349.192-.733.192-1.154 0-.417-.064-.801-.192-1.15a1.877 1.877 0 0 0-.579-.849c-.262-.213-.591-.32-.989-.32-.4 0-.733.107-.997.32a1.91 1.91 0 0 0-.584.849c-.125.349-.187.733-.187 1.15 0 .42.062.806.187 1.155.128.35.323.63.584.84.264.21.597.315.997.315Zm6.343-7.789v8.727h-1.274v-8.727h1.274Zm2.315 8.727v-6.545h1.274v6.545H442.7Zm.643-7.555a.81.81 0 0 1-.571-.222.721.721 0 0 1-.234-.537c0-.21.078-.389.234-.537a.8.8 0 0 1 .571-.225c.222 0 .41.075.567.225a.706.706 0 0 1 .238.537.714.714 0 0 1-.238.537.796.796 0 0 1-.567.222Zm5.702 7.687c-.614 0-1.149-.14-1.607-.422a2.848 2.848 0 0 1-1.065-1.18c-.253-.506-.379-1.096-.379-1.773 0-.679.126-1.272.379-1.78a2.842 2.842 0 0 1 1.065-1.185c.458-.282.993-.422 1.607-.422s1.149.14 1.606.422c.458.28.813.676 1.066 1.184.253.509.379 1.102.379 1.781 0 .676-.126 1.267-.379 1.773s-.608.9-1.066 1.18c-.457.282-.992.422-1.606.422Zm.004-1.07c.398 0 .727-.104.989-.315.261-.21.454-.49.579-.84.128-.349.192-.733.192-1.154 0-.417-.064-.801-.192-1.15a1.877 1.877 0 0 0-.579-.849c-.262-.213-.591-.32-.989-.32-.4 0-.733.107-.997.32a1.91 1.91 0 0 0-.584.849c-.125.349-.187.733-.187 1.15 0 .42.062.806.187 1.155.128.35.323.63.584.84.264.21.597.315.997.315Z" fill="#6E6EFC"/><path d="M376.2 65.932c0-2.82-2.44-3.56-4.66-4.08v-3.4c1 .12 2.04.46 3.06 1.04l1-2.46c-1.1-.7-2.56-1.1-4.06-1.22v-2.18h-2v2.22c-3.16.36-4.7 2.18-4.7 4.3 0 2.86 2.48 3.6 4.7 4.14v3.34c-1.44-.14-2.88-.68-3.88-1.42l-1.1 2.44c1.1.86 3 1.48 4.98 1.6v2.18h2v-2.24c3.14-.38 4.66-2.18 4.66-4.26Zm-8.14-5.94c0-.66.42-1.24 1.48-1.48v2.84c-.88-.28-1.48-.66-1.48-1.36Zm3.48 7.56v-2.76c.86.3 1.44.68 1.44 1.38 0 .64-.44 1.16-1.44 1.38Zm26.478-3.1h-2.28v-2.62h-3.06v2.62h-3.76l6.12-8.42h-3.4l-6.6 8.88v2.18h7.54v2.94h3.16v-2.94h2.28v-2.64Zm.821-8.42v2.6h2.8v11.4h3.24v-14h-6.04Zm11.332 10.28c-1.1 0-1.94.76-1.94 1.92 0 .82.42 1.44 1.08 1.7l-.88 3.18h1.98l1.14-2.88c.46-1.1.54-1.48.54-2 0-1.14-.8-1.92-1.92-1.92Zm11.11-4.58 3.16-3.6v-2.1h-9.8v2.6h5.96l-2.88 3.26v2.14h1.48c1.84 0 2.62.66 2.62 1.72 0 1.14-1 1.8-2.62 1.8-1.46 0-2.94-.46-4-1.26l-1.26 2.48c1.36.96 3.38 1.5 5.34 1.5 3.98 0 5.8-2.16 5.8-4.52 0-2.06-1.28-3.62-3.8-4.02Zm11.216-5.94c-2.96 0-5.3 1.8-5.3 4.66 0 2.64 2.12 4.36 4.82 4.36 1.46 0 2.66-.44 3.48-1.26-.1 2.7-1.62 4.08-3.94 4.08-.96 0-1.86-.18-2.62-.7l-1.2 2.38c.98.62 2.4.96 3.88.96 4.24 0 7.14-2.7 7.14-7.54 0-4.52-2.38-6.94-6.26-6.94Zm.24 6.6c-1.44 0-2.38-.82-2.38-2.1 0-1.28.96-2.08 2.34-2.08 1.54 0 2.44.88 2.44 2.08 0 1.22-.98 2.1-2.4 2.1Zm21.394 2.06h-2.28v-2.62h-3.06v2.62h-3.76l6.12-8.42h-3.4l-6.6 8.88v2.18h7.54v2.94h3.16v-2.94h2.28v-2.64Z" fill="#6E6EFC"/><rect x="348.5" y="16.532" width="141" height="74.978" rx="3.5" stroke="url(#g)" shape-rendering="crispEdges"/></g><defs><linearGradient id="b" x1="302.227" y1="-800.372" x2="287.347" y2="211.349" gradientUnits="userSpaceOnUse"><stop stop-color="#57CA7A"/><stop offset="1" stop-color="#57CA7A" stop-opacity="0"/></linearGradient><linearGradient id="c" x1="48.014" y1="137.674" x2="560.992" y2="38.023" gradientUnits="userSpaceOnUse"><stop stop-color="#57CA7A"/><stop offset="1" stop-color="#57CA7A"/></linearGradient><linearGradient id="f" x1="348" y1="16.032" x2="484.938" y2="100.242" gradientUnits="userSpaceOnUse"><stop stop-color="#fff" stop-opacity=".54"/><stop offset="1" stop-color="#fff" stop-opacity=".42"/></linearGradient><linearGradient id="g" x1="348" y1="16.032" x2="484.938" y2="100.242" gradientUnits="userSpaceOnUse"><stop stop-color="#fff" stop-opacity=".3"/><stop offset="1" stop-color="#fff" stop-opacity=".1"/></linearGradient><filter id="a" x="-9" y="-9" width="583" height="274" filterUnits="userSpaceOnUse" color-interpolation-filters="sRGB"><feFlood flood-opacity="0" result="BackgroundImageFix"/><feGaussianBlur in="BackgroundImageFix" stdDeviation="4.5"/><feComposite in2="SourceAlpha" operator="in" result="effect1_backgroundBlur_207_111"/><feBlend in="SourceGraphic" in2="effect1_backgroundBlur_207_111" result="shape"/></filter><filter id="d" x="430" y="204.976" width="126" height="38.993" filterUnits="userSpaceOnUse" color-interpolation-filters="sRGB"><feFlood flood-opacity="0" result="BackgroundImageFix"/><feGaussianBlur in="BackgroundImageFix" stdDeviation="3.5"/><feComposite in2="SourceAlpha" operator="in" result="effect1_backgroundBlur_207_111"/><feColorMatrix in="SourceAlpha" values="0 0 0 0 0 0 0 0 0 0 0 0 0 0 0 0 0 0 127 0" result="hardAlpha"/><feOffset/><feGaussianBlur stdDeviation="1"/><feComposite in2="hardAlpha" operator="out"/><feColorMatrix values="0 0 0 0 0 0 0 0 0 0 0 0 0 0 0 0 0 0 0.25 0"/><feBlend in2="effect1_backgroundBlur_207_111" result="effect2_dropShadow_207_111"/><feBlend in="SourceGraphic" in2="effect2_dropShadow_207_111" result="shape"/></filter><filter id="e" x="341" y="9.032" width="156" height="89.978" filterUnits="userSpaceOnUse" color-interpolation-filters="sRGB"><feFlood flood-opacity="0" result="BackgroundImageFix"/><feGaussianBlur in="BackgroundImageFix" stdDeviation="3.5"/><feComposite in2="SourceAlpha" operator="in" result="effect1_backgroundBlur_207_111"/><feColorMatrix in="SourceAlpha" values="0 0 0 0 0 0 0 0 0 0 0 0 0 0 0 0 0 0 127 0" result="hardAlpha"/><feOffset/><feGaussianBlur stdDeviation="1"/><feComposite in2="hardAlpha" operator="out"/><feColorMatrix values="0 0 0 0 0 0 0 0 0 0 0 0 0 0 0 0 0 0 0.25 0"/><feBlend in2="effect1_backgroundBlur_207_111" result="effect2_dropShadow_207_111"/><feBlend in="SourceGraphic" in2="effect2_dropShadow_207_111" result="shape"/></filter></defs></svg>