<svg width="574" height="256" fill="none" xmlns="http://www.w3.org/2000/svg"><g filter="url(#a)"><rect width="574" height="256" rx="25" fill="#fff" fill-opacity=".56"/></g><path opacity=".3" d="M16.198 196.31v8.727h-1.32v-7.406h-.052l-2.088 1.363v-1.261l2.178-1.423h1.282Zm3.314 8.808a.83.83 0 0 1-.601-.247.827.827 0 0 1-.252-.605c0-.233.084-.432.252-.597a.818.818 0 0 1 .6-.251c.234 0 .434.083.602.251a.807.807 0 0 1 .25.597c0 .156-.039.299-.118.43a.883.883 0 0 1-.307.307.82.82 0 0 1-.426.115Zm5.398-8.808v8.727h-1.321v-7.406h-.051l-2.088 1.363v-1.261l2.177-1.423h1.283Zm3.08 8.727v-8.727h1.317v4.167h.106l3.66-4.167h1.658l-3.52 3.929 3.533 4.798H33.16l-2.82-3.899-1.032 1.184v2.715H27.99ZM48.719 219.602a1.244 1.244 0 0 0-.563-.937c-.33-.225-.744-.337-1.244-.337a2.31 2.31 0 0 0-.929.171c-.261.11-.464.264-.61.46a1.085 1.085 0 0 0-.212.66.97.97 0 0 0 .144.537c.1.151.23.277.388.379.162.1.335.184.52.252.185.065.362.119.533.162l.852.221c.278.069.564.161.857.277.292.117.564.27.814.461.25.19.451.426.605.707.156.281.234.618.234 1.01 0 .494-.128.933-.384 1.317-.252.383-.62.686-1.103.907-.48.222-1.061.333-1.743.333-.654 0-1.219-.104-1.696-.311-.477-.208-.851-.502-1.12-.882-.27-.384-.42-.838-.448-1.364h1.32c.026.315.129.578.308.788.181.208.413.363.694.465.284.099.595.149.933.149.373 0 .703-.058.993-.175.293-.119.523-.284.69-.494.168-.213.252-.462.252-.746a.917.917 0 0 0-.222-.635 1.635 1.635 0 0 0-.592-.409 5.74 5.74 0 0 0-.84-.285l-1.03-.282c-.7-.19-1.253-.47-1.663-.839-.406-.369-.609-.858-.609-1.466 0-.503.136-.942.41-1.317a2.682 2.682 0 0 1 1.107-.873c.466-.211.991-.316 1.577-.316.59 0 1.112.104 1.564.311.454.208.812.493 1.074.857.26.361.397.775.409 1.244h-1.27Zm3.563 6.435v-8.727h5.471v1.133h-4.155v2.659h3.87v1.129h-3.87v2.672h4.206v1.134h-5.523Zm7.83 0v-8.727h3.11c.68 0 1.242.123 1.688.37.446.247.78.586 1.002 1.015.221.426.332.906.332 1.44 0 .537-.112 1.02-.337 1.449a2.436 2.436 0 0 1-1.005 1.014c-.446.247-1.007.371-1.684.371H61.08v-1.117h2.02c.43 0 .777-.074 1.044-.221.267-.151.463-.355.588-.614.125-.259.188-.553.188-.882 0-.33-.063-.622-.188-.878a1.344 1.344 0 0 0-.592-.601c-.267-.145-.62-.217-1.057-.217H61.43v7.598h-1.317Zm15.243-8.727v8.727h-1.32v-7.406h-.052l-2.088 1.363v-1.261l2.178-1.423h1.282Zm6 8.846c-.586 0-1.109-.101-1.569-.302a2.664 2.664 0 0 1-1.086-.84 2.228 2.228 0 0 1-.427-1.253h1.339c.017.259.103.483.26.674.159.187.366.332.622.434.255.103.54.154.852.154a2.2 2.2 0 0 0 .912-.179c.267-.12.476-.286.626-.499a1.27 1.27 0 0 0 .226-.746 1.34 1.34 0 0 0-.226-.771 1.467 1.467 0 0 0-.652-.528c-.284-.128-.628-.192-1.031-.192h-.737v-1.074h.737c.324 0 .608-.058.852-.175.247-.116.44-.278.58-.485.139-.211.209-.456.209-.738 0-.27-.061-.504-.184-.703a1.231 1.231 0 0 0-.511-.473 1.669 1.669 0 0 0-.776-.17c-.284 0-.55.052-.796.157-.245.103-.444.25-.597.444a1.14 1.14 0 0 0-.247.686h-1.274c.014-.472.153-.887.417-1.245.267-.358.62-.637 1.057-.839a3.435 3.435 0 0 1 1.457-.303c.56 0 1.043.11 1.45.328.408.216.724.505.945.865.225.361.336.756.333 1.185.003.489-.134.904-.41 1.244-.272.341-.636.57-1.09.687v.068c.58.088 1.028.318 1.346.69.321.372.48.834.478 1.385.002.48-.131.91-.4 1.291a2.718 2.718 0 0 1-1.096.899c-.463.216-.993.324-1.59.324ZM128.719 219.602a1.245 1.245 0 0 0-.563-.937c-.329-.225-.744-.337-1.244-.337a2.31 2.31 0 0 0-.929.171 1.42 1.42 0 0 0-.609.46 1.085 1.085 0 0 0-.213.66c0 .208.048.387.144.537.1.151.229.277.388.379.162.1.335.184.52.252.185.065.362.119.533.162l.852.221c.278.069.564.161.857.277.292.117.563.27.813.461.25.19.452.426.606.707.156.281.234.618.234 1.01 0 .494-.128.933-.384 1.317-.252.383-.62.686-1.103.907-.48.222-1.061.333-1.743.333-.654 0-1.219-.104-1.696-.311-.477-.208-.851-.502-1.121-.882-.27-.384-.419-.838-.447-1.364h1.321c.025.315.128.578.306.788.182.208.414.363.695.465.284.099.595.149.933.149.372 0 .703-.058.993-.175.293-.119.523-.284.691-.494.167-.213.251-.462.251-.746a.916.916 0 0 0-.222-.635 1.626 1.626 0 0 0-.592-.409 5.746 5.746 0 0 0-.839-.285l-1.032-.282c-.699-.19-1.253-.47-1.662-.839-.406-.369-.609-.858-.609-1.466 0-.503.136-.942.409-1.317a2.684 2.684 0 0 1 1.108-.873c.466-.211.992-.316 1.577-.316.591 0 1.112.104 1.564.311.454.208.812.493 1.074.857.261.361.397.775.409 1.244h-1.27Zm3.562 6.435v-8.727h5.472v1.133h-4.155v2.659h3.87v1.129h-3.87v2.672h4.206v1.134h-5.523Zm7.831 0v-8.727h3.111c.679 0 1.241.123 1.687.37.446.247.78.586 1.002 1.015.221.426.332.906.332 1.44 0 .537-.112 1.02-.337 1.449a2.43 2.43 0 0 1-1.005 1.014c-.446.247-1.007.371-1.684.371h-2.139v-1.117h2.02c.429 0 .777-.074 1.044-.221.267-.151.463-.355.588-.614.125-.259.188-.553.188-.882 0-.33-.063-.622-.188-.878a1.343 1.343 0 0 0-.592-.601c-.267-.145-.619-.217-1.057-.217h-1.653v7.598h-1.317Zm15.243-8.727v8.727h-1.321v-7.406h-.051l-2.088 1.363v-1.261l2.178-1.423h1.282Zm2.778 7.022v-1.065l3.771-5.957h.84v1.568h-.533l-2.698 4.27v.068h5.17v1.116h-6.55Zm4.138 1.705v-2.029l.008-.485v-6.213h1.249v8.727h-1.257ZM207.719 219.602a1.245 1.245 0 0 0-.563-.937c-.329-.225-.744-.337-1.244-.337a2.31 2.31 0 0 0-.929.171 1.42 1.42 0 0 0-.609.46 1.085 1.085 0 0 0-.213.66c0 .208.048.387.144.537.1.151.229.277.388.379.162.1.335.184.52.252.185.065.362.119.533.162l.852.221c.278.069.564.161.857.277.292.117.563.27.813.461.25.19.452.426.606.707.156.281.234.618.234 1.01 0 .494-.128.933-.384 1.317-.252.383-.62.686-1.103.907-.48.222-1.061.333-1.743.333-.654 0-1.219-.104-1.696-.311-.477-.208-.851-.502-1.121-.882-.27-.384-.419-.838-.447-1.364h1.321c.025.315.128.578.306.788.182.208.414.363.695.465.284.099.595.149.933.149.372 0 .703-.058.993-.175.293-.119.523-.284.691-.494.167-.213.251-.462.251-.746a.916.916 0 0 0-.222-.635 1.626 1.626 0 0 0-.592-.409 5.746 5.746 0 0 0-.839-.285l-1.032-.282c-.699-.19-1.253-.47-1.662-.839-.406-.369-.609-.858-.609-1.466 0-.503.136-.942.409-1.317a2.684 2.684 0 0 1 1.108-.873c.466-.211.992-.316 1.577-.316.591 0 1.112.104 1.564.311.454.208.812.493 1.074.857.261.361.397.775.409 1.244h-1.27Zm3.562 6.435v-8.727h5.472v1.133h-4.155v2.659h3.87v1.129h-3.87v2.672h4.206v1.134h-5.523Zm7.831 0v-8.727h3.196c.619 0 1.132.102 1.538.306.407.202.711.476.912.823.202.344.303.731.303 1.163 0 .364-.067.671-.2.921a1.652 1.652 0 0 1-.537.596 2.36 2.36 0 0 1-.733.324v.085c.289.015.572.108.848.282.278.17.508.413.69.728.182.316.273.699.273 1.151 0 .446-.105.846-.316 1.202-.207.352-.528.632-.963.839-.434.205-.99.307-1.666.307h-3.345Zm1.317-1.129h1.9c.631 0 1.083-.123 1.355-.367.273-.244.409-.55.409-.916a1.442 1.442 0 0 0-.805-1.308 1.907 1.907 0 0 0-.912-.205h-1.947v2.796Zm0-3.823h1.764c.295 0 .561-.057.797-.17.238-.114.427-.273.567-.478.142-.207.213-.451.213-.733 0-.36-.127-.663-.38-.907-.252-.245-.64-.367-1.163-.367h-1.798v2.655Zm14.102-3.775v8.727h-1.321v-7.406h-.051l-2.088 1.363v-1.261l2.177-1.423h1.283Zm5.842 8.846a3.28 3.28 0 0 1-1.441-.307 2.615 2.615 0 0 1-1.014-.852 2.25 2.25 0 0 1-.405-1.236h1.279c.031.375.197.684.498.925a1.68 1.68 0 0 0 1.083.362c.335 0 .632-.076.89-.23.262-.156.466-.371.614-.643.15-.273.226-.584.226-.934 0-.355-.077-.671-.23-.95a1.71 1.71 0 0 0-.635-.656 1.797 1.797 0 0 0-.921-.243c-.264 0-.53.045-.797.136a1.855 1.855 0 0 0-.647.358l-1.206-.179.49-4.397h4.798v1.129h-3.703l-.277 2.442h.051a2.03 2.03 0 0 1 .677-.414 2.49 2.49 0 0 1 .912-.166 2.666 2.666 0 0 1 2.404 1.415c.241.435.361.935.358 1.5a2.914 2.914 0 0 1-.384 1.513 2.778 2.778 0 0 1-1.065 1.048c-.452.253-.97.379-1.555.379ZM288.719 219.602a1.245 1.245 0 0 0-.563-.937c-.329-.225-.744-.337-1.244-.337a2.31 2.31 0 0 0-.929.171 1.42 1.42 0 0 0-.609.46 1.085 1.085 0 0 0-.213.66c0 .208.048.387.144.537.1.151.229.277.388.379.162.1.335.184.52.252.185.065.362.119.533.162l.852.221c.278.069.564.161.857.277.292.117.563.27.813.461.25.19.452.426.606.707.156.281.234.618.234 1.01 0 .494-.128.933-.384 1.317-.252.383-.62.686-1.103.907-.48.222-1.061.333-1.743.333-.654 0-1.219-.104-1.696-.311-.477-.208-.851-.502-1.121-.882-.27-.384-.419-.838-.447-1.364h1.321c.025.315.128.578.306.788.182.208.414.363.695.465.284.099.595.149.933.149.372 0 .703-.058.993-.175.293-.119.523-.284.691-.494.167-.213.251-.462.251-.746a.916.916 0 0 0-.222-.635 1.626 1.626 0 0 0-.592-.409 5.746 5.746 0 0 0-.839-.285l-1.032-.282c-.699-.19-1.253-.47-1.662-.839-.406-.369-.609-.858-.609-1.466 0-.503.136-.942.409-1.317a2.684 2.684 0 0 1 1.108-.873c.466-.211.992-.316 1.577-.316.591 0 1.112.104 1.564.311.454.208.812.493 1.074.857.261.361.397.775.409 1.244h-1.27Zm3.562 6.435v-8.727h5.472v1.133h-4.155v2.659h3.87v1.129h-3.87v2.672h4.206v1.134h-5.523Zm7.831 0v-8.727h3.196c.619 0 1.132.102 1.538.306.407.202.711.476.912.823.202.344.303.731.303 1.163 0 .364-.067.671-.2.921a1.652 1.652 0 0 1-.537.596 2.36 2.36 0 0 1-.733.324v.085c.289.015.572.108.848.282.278.17.508.413.69.728.182.316.273.699.273 1.151 0 .446-.105.846-.316 1.202-.207.352-.528.632-.963.839-.434.205-.99.307-1.666.307h-3.345Zm1.317-1.129h1.9c.631 0 1.083-.123 1.355-.367.273-.244.409-.55.409-.916a1.442 1.442 0 0 0-.805-1.308 1.907 1.907 0 0 0-.912-.205h-1.947v2.796Zm0-3.823h1.764c.295 0 .561-.057.797-.17.238-.114.427-.273.567-.478.142-.207.213-.451.213-.733 0-.36-.127-.663-.38-.907-.252-.245-.64-.367-1.163-.367h-1.798v2.655Zm14.102-3.775v8.727h-1.321v-7.406h-.051l-2.088 1.363v-1.261l2.177-1.423h1.283Zm6.008 8.846a3.516 3.516 0 0 1-1.151-.213 2.697 2.697 0 0 1-1.023-.682c-.306-.318-.552-.745-.737-1.282-.182-.537-.273-1.208-.273-2.012 0-.761.076-1.437.226-2.028.154-.591.374-1.09.661-1.496a2.92 2.92 0 0 1 1.04-.933 2.9 2.9 0 0 1 1.368-.32c.519 0 .981.103 1.384.307.404.205.731.487.981.848.252.361.413.771.481 1.232h-1.3a1.675 1.675 0 0 0-.524-.891c-.261-.23-.602-.345-1.022-.345-.64 0-1.138.278-1.496.835-.355.557-.534 1.331-.537 2.323h.064c.15-.248.335-.458.554-.631a2.604 2.604 0 0 1 1.611-.55c.505 0 .963.124 1.372.371.412.244.74.582.984 1.014.244.432.367.926.367 1.483s-.127 1.061-.38 1.513c-.25.452-.602.809-1.057 1.074-.454.261-.985.389-1.593.383Zm-.005-1.108c.336 0 .635-.082.9-.247.264-.165.473-.386.626-.665.153-.278.23-.589.23-.933 0-.335-.075-.641-.226-.916a1.698 1.698 0 0 0-.613-.656 1.636 1.636 0 0 0-.887-.243 1.695 1.695 0 0 0-1.265.545c-.162.171-.29.367-.384.588a1.794 1.794 0 0 0-.136.695 1.856 1.856 0 0 0 .852 1.581c.267.167.568.251.903.251ZM368.719 219.602a1.245 1.245 0 0 0-.563-.937c-.329-.225-.744-.337-1.244-.337a2.31 2.31 0 0 0-.929.171 1.42 1.42 0 0 0-.609.46 1.085 1.085 0 0 0-.213.66c0 .208.048.387.144.537.1.151.229.277.388.379.162.1.335.184.52.252.185.065.362.119.533.162l.852.221c.278.069.564.161.857.277.292.117.563.27.813.461.25.19.452.426.606.707.156.281.234.618.234 1.01 0 .494-.128.933-.384 1.317-.252.383-.62.686-1.103.907-.48.222-1.061.333-1.743.333-.654 0-1.219-.104-1.696-.311-.477-.208-.851-.502-1.121-.882-.27-.384-.419-.838-.447-1.364h1.321c.025.315.128.578.306.788.182.208.414.363.695.465.284.099.595.149.933.149.372 0 .703-.058.993-.175.293-.119.523-.284.691-.494.167-.213.251-.462.251-.746a.916.916 0 0 0-.222-.635 1.626 1.626 0 0 0-.592-.409 5.746 5.746 0 0 0-.839-.285l-1.032-.282c-.699-.19-1.253-.47-1.662-.839-.406-.369-.609-.858-.609-1.466 0-.503.136-.942.409-1.317a2.684 2.684 0 0 1 1.108-.873c.466-.211.992-.316 1.577-.316.591 0 1.112.104 1.564.311.454.208.812.493 1.074.857.261.361.397.775.409 1.244h-1.27Zm3.562 6.435v-8.727h5.472v1.133h-4.155v2.659h3.87v1.129h-3.87v2.672h4.206v1.134h-5.523Zm7.831 0v-8.727h3.196c.619 0 1.132.102 1.538.306.407.202.711.476.912.823.202.344.303.731.303 1.163 0 .364-.067.671-.2.921a1.652 1.652 0 0 1-.537.596 2.36 2.36 0 0 1-.733.324v.085c.289.015.572.108.848.282.278.17.508.413.69.728.182.316.273.699.273 1.151 0 .446-.105.846-.316 1.202-.207.352-.528.632-.963.839-.434.205-.99.307-1.666.307h-3.345Zm1.317-1.129h1.9c.631 0 1.083-.123 1.355-.367.273-.244.409-.55.409-.916a1.442 1.442 0 0 0-.805-1.308 1.907 1.907 0 0 0-.912-.205h-1.947v2.796Zm0-3.823h1.764c.295 0 .561-.057.797-.17.238-.114.427-.273.567-.478.142-.207.213-.451.213-.733 0-.36-.127-.663-.38-.907-.252-.245-.64-.367-1.163-.367h-1.798v2.655Zm14.102-3.775v8.727h-1.321v-7.406h-.051l-2.088 1.363v-1.261l2.177-1.423h1.283Zm3.255 8.727 3.81-7.534v-.064h-4.407v-1.129h5.77v1.167l-3.797 7.56h-1.376ZM9.954 164.037v-.955l2.953-3.059c.315-.333.575-.624.78-.874.207-.253.362-.493.464-.72.102-.227.153-.469.153-.725 0-.289-.068-.539-.204-.75a1.34 1.34 0 0 0-.558-.49 1.781 1.781 0 0 0-.797-.174c-.313 0-.585.064-.818.191a1.317 1.317 0 0 0-.537.542 1.703 1.703 0 0 0-.188.818H9.945c0-.531.122-.996.367-1.394.244-.397.58-.706 1.005-.924.426-.222.91-.333 1.453-.333.549 0 1.032.11 1.45.328.42.216.748.512.984.887.235.372.353.792.353 1.261 0 .324-.06.641-.183.95-.12.31-.328.655-.626 1.036-.299.378-.713.837-1.245 1.376l-1.734 1.816v.064h3.929v1.129H9.954Zm8.816.081a.83.83 0 0 1-.601-.247.827.827 0 0 1-.252-.605c0-.233.084-.432.252-.597a.818.818 0 0 1 .6-.251c.233 0 .434.083.601.251a.807.807 0 0 1 .252.597c0 .156-.04.299-.12.43a.883.883 0 0 1-.306.307.819.819 0 0 1-.427.115Zm3.141-.081v-.955l2.953-3.059c.316-.333.576-.624.78-.874.208-.253.363-.493.465-.72.102-.227.153-.469.153-.725 0-.289-.068-.539-.204-.75a1.34 1.34 0 0 0-.559-.49 1.781 1.781 0 0 0-.796-.174c-.313 0-.586.064-.819.191a1.317 1.317 0 0 0-.537.542 1.703 1.703 0 0 0-.187.818h-1.257c0-.531.122-.996.366-1.394.245-.397.58-.706 1.006-.924.426-.222.91-.333 1.453-.333.548 0 1.031.11 1.449.328.42.216.749.512.984.887.236.372.354.792.354 1.261 0 .324-.061.641-.183.95-.12.31-.328.655-.627 1.036-.298.378-.713.837-1.244 1.376l-1.734 1.816v.064h3.929v1.129H21.91Zm8.08 0v-8.727h1.316v4.167h.106l3.66-4.167h1.658l-3.52 3.929 3.533 4.798H35.16l-2.82-3.899-1.032 1.184v2.715H29.99ZM13.816 123.156c-.585 0-1.108-.101-1.568-.302a2.665 2.665 0 0 1-1.087-.84 2.228 2.228 0 0 1-.426-1.253h1.338c.017.259.104.483.26.674.16.187.367.332.622.434.256.103.54.154.853.154a2.2 2.2 0 0 0 .912-.179c.267-.12.475-.286.626-.499.15-.216.226-.464.226-.746 0-.292-.075-.549-.226-.771a1.468 1.468 0 0 0-.652-.528c-.284-.128-.628-.192-1.031-.192h-.738v-1.074h.738c.324 0 .608-.058.852-.175.247-.116.44-.278.58-.485.139-.211.208-.456.208-.738 0-.27-.06-.504-.183-.703a1.231 1.231 0 0 0-.511-.473 1.669 1.669 0 0 0-.776-.17c-.284 0-.55.052-.797.157-.244.103-.443.25-.596.444a1.14 1.14 0 0 0-.247.686h-1.275c.015-.472.154-.887.418-1.245.267-.358.62-.637 1.057-.839a3.435 3.435 0 0 1 1.457-.303c.56 0 1.043.11 1.45.328.408.216.723.505.945.865.224.361.335.756.332 1.185.003.489-.133.904-.409 1.244-.272.341-.636.57-1.09.687v.068c.579.088 1.028.318 1.346.69.321.372.48.834.477 1.385.003.48-.13.91-.4 1.291a2.718 2.718 0 0 1-1.095.899c-.463.216-.993.324-1.59.324Zm5.895-.038a.83.83 0 0 1-.601-.247.827.827 0 0 1-.251-.605c0-.233.083-.432.251-.597a.818.818 0 0 1 .6-.251c.234 0 .434.083.602.251a.807.807 0 0 1 .251.597c0 .156-.04.299-.12.43a.883.883 0 0 1-.306.307.819.819 0 0 1-.426.115Zm5.864.038c-.585 0-1.108-.101-1.569-.302a2.664 2.664 0 0 1-1.086-.84 2.228 2.228 0 0 1-.426-1.253h1.338c.017.259.104.483.26.674.159.187.366.332.622.434.256.103.54.154.852.154a2.2 2.2 0 0 0 .912-.179c.267-.12.476-.286.627-.499a1.27 1.27 0 0 0 .225-.746 1.34 1.34 0 0 0-.225-.771 1.467 1.467 0 0 0-.652-.528c-.284-.128-.628-.192-1.032-.192h-.737v-1.074h.737c.324 0 .608-.058.853-.175.247-.116.44-.278.58-.485.138-.211.208-.456.208-.738 0-.27-.061-.504-.183-.703a1.231 1.231 0 0 0-.512-.473 1.669 1.669 0 0 0-.775-.17c-.284 0-.55.052-.797.157-.244.103-.443.25-.597.444a1.14 1.14 0 0 0-.247.686h-1.274c.014-.472.153-.887.418-1.245.267-.358.619-.637 1.056-.839a3.435 3.435 0 0 1 1.458-.303c.56 0 1.042.11 1.449.328.409.216.724.505.946.865.224.361.335.756.332 1.185.003.489-.133.904-.409 1.244-.273.341-.636.57-1.09.687v.068c.579.088 1.027.318 1.346.69.32.372.48.834.477 1.385.003.48-.13.91-.4 1.291a2.718 2.718 0 0 1-1.096.899c-.463.216-.993.324-1.59.324Zm5.415-.119v-8.727h1.317v4.167h.106l3.66-4.167h1.658l-3.52 3.929 3.533 4.798H36.16l-2.82-3.899-1.032 1.184v2.715H30.99ZM11.114 80.332v-1.065l3.771-5.957h.84v1.568h-.533l-2.697 4.27v.068h5.169v1.116h-6.55Zm4.138 1.705v-2.029l.008-.485V73.31h1.249v8.727h-1.257Zm5.025.08a.827.827 0 0 1-.6-.246.825.825 0 0 1-.252-.605c0-.233.084-.432.251-.597a.82.82 0 0 1 .601-.251.82.82 0 0 1 .601.251.806.806 0 0 1 .252.597c0 .156-.04.3-.12.43a.881.881 0 0 1-.307.307.812.812 0 0 1-.426.115Zm2.959-1.785v-1.065l3.771-5.957h.84v1.568h-.533l-2.697 4.27v.068h5.169v1.116h-6.55Zm4.138 1.705v-2.029l.008-.485V73.31h1.249v8.727h-1.257Zm4.616 0V73.31h1.317v4.167h.106l3.66-4.167h1.658l-3.52 3.929 3.533 4.798H37.16l-2.82-3.9-1.032 1.185v2.715H31.99ZM15.127 41.156a3.287 3.287 0 0 1-1.44-.307 2.617 2.617 0 0 1-1.014-.852 2.25 2.25 0 0 1-.405-1.236h1.278c.032.375.198.683.499.925s.662.362 1.082.362c.335 0 .632-.077.89-.23a1.65 1.65 0 0 0 .614-.643 1.9 1.9 0 0 0 .226-.934c0-.355-.076-.672-.23-.95a1.7 1.7 0 0 0-.635-.656 1.793 1.793 0 0 0-.92-.243c-.264 0-.53.045-.797.136-.267.091-.483.21-.648.358l-1.206-.179.49-4.397h4.799v1.129h-3.704l-.277 2.442h.052c.17-.165.396-.303.677-.414.284-.11.588-.166.912-.166a2.671 2.671 0 0 1 2.403 1.415c.242.434.361.934.358 1.5a2.916 2.916 0 0 1-.383 1.513c-.256.443-.61.792-1.065 1.048-.452.253-.97.38-1.556.38Zm5.701-.038a.827.827 0 0 1-.6-.247.825.825 0 0 1-.252-.605c0-.233.084-.432.251-.597a.82.82 0 0 1 .601-.252.82.82 0 0 1 .6.252.806.806 0 0 1 .252.597c0 .156-.04.3-.119.43a.882.882 0 0 1-.307.307.812.812 0 0 1-.426.115Zm5.882.038a3.287 3.287 0 0 1-1.44-.307 2.617 2.617 0 0 1-1.014-.852 2.25 2.25 0 0 1-.405-1.236h1.278c.031.375.197.683.499.925.3.242.662.362 1.082.362.335 0 .632-.077.89-.23a1.65 1.65 0 0 0 .614-.643 1.9 1.9 0 0 0 .226-.934c0-.355-.077-.672-.23-.95a1.698 1.698 0 0 0-.635-.656 1.793 1.793 0 0 0-.92-.243c-.265 0-.53.045-.797.136-.267.091-.483.21-.648.358l-1.206-.179.49-4.397h4.798v1.129H25.59l-.277 2.442h.051c.17-.165.397-.303.678-.414.284-.11.588-.166.912-.166a2.671 2.671 0 0 1 2.403 1.415c.242.434.361.934.358 1.5a2.917 2.917 0 0 1-.383 1.513c-.256.443-.611.792-1.066 1.048-.451.253-.97.38-1.555.38Zm5.28-.12V32.31h1.317v4.167h.106l3.66-4.167h1.658l-3.52 3.929 3.533 4.798H37.16l-2.82-3.9-1.032 1.185v2.715H31.99Z" fill="#434343"/><path opacity=".15" stroke="#474747" stroke-width=".372" stroke-dasharray="6 6" d="M43.016 75.581h496.887v.372H43.016zM43.016 116.523h496.887v.372H43.016zM43.016 157.465h496.887v.372H43.016zM43.016 198.407h496.887v.372H43.016zM43.016 34.639h496.887v.372H43.016z"/><path opacity=".5" stroke="#FF3642" stroke-width=".372" d="M43.016 193.223h496.887v.372H43.016z"/><g filter="url(#b)"><rect x="424" y="207.037" width="112" height="25" rx="2" fill="#fff" fill-opacity=".15" shape-rendering="crispEdges"/><path d="M436.213 217.53a1.454 1.454 0 0 0-.656-1.094c-.385-.262-.869-.393-1.452-.393-.417 0-.779.067-1.084.199a1.664 1.664 0 0 0-.711.537 1.27 1.27 0 0 0-.248.771c0 .242.056.45.169.626.116.176.267.323.452.443.189.116.391.213.607.293.215.076.422.139.621.189l.995.258c.324.08.657.188.999.323.341.136.658.315.949.537.292.222.527.498.706.826.183.328.274.721.274 1.178 0 .577-.149 1.089-.448 1.536-.295.448-.724.801-1.287 1.059-.56.259-1.238.388-2.034.388-.762 0-1.422-.121-1.978-.363-.557-.242-.993-.585-1.308-1.029-.315-.448-.489-.978-.522-1.591h1.541c.03.368.149.674.358.92.212.242.483.422.811.542.331.116.694.174 1.088.174.435 0 .821-.068 1.159-.204.341-.139.61-.332.805-.577.196-.249.294-.539.294-.87 0-.302-.087-.549-.259-.741a1.91 1.91 0 0 0-.691-.477 6.737 6.737 0 0 0-.979-.333l-1.204-.328c-.815-.222-1.461-.549-1.939-.98-.473-.431-.71-1.001-.71-1.71 0-.587.159-1.099.477-1.536.318-.438.749-.777 1.292-1.019.544-.246 1.157-.368 1.84-.368.689 0 1.298.121 1.825.363.53.242.947.575 1.252.999.305.421.464.905.478 1.452h-1.482Zm7.328 7.661c-.752 0-1.4-.161-1.943-.482a3.271 3.271 0 0 1-1.253-1.367c-.292-.59-.438-1.281-.438-2.074 0-.782.146-1.471.438-2.068a3.403 3.403 0 0 1 1.233-1.397c.53-.335 1.15-.502 1.859-.502.431 0 .849.071 1.253.214.404.142.767.366 1.089.671.321.305.575.701.76 1.188.186.484.279 1.072.279 1.765v.527h-6.071v-1.114h4.614c0-.391-.079-.737-.239-1.039a1.798 1.798 0 0 0-.671-.72 1.873 1.873 0 0 0-1.004-.264c-.418 0-.782.103-1.094.308a2.072 2.072 0 0 0-.716.796 2.306 2.306 0 0 0-.248 1.059v.87c0 .51.089.944.268 1.302.183.358.436.632.761.821a2.26 2.26 0 0 0 1.138.278c.282 0 .539-.04.771-.119.232-.083.432-.206.602-.368.169-.163.298-.363.387-.602l1.407.254a2.552 2.552 0 0 1-.606 1.089 2.947 2.947 0 0 1-1.089.72c-.434.169-.93.254-1.487.254Zm5.745-.154v-10.182h1.487v3.783h.089a4.23 4.23 0 0 1 .373-.551c.163-.209.388-.392.676-.547.289-.159.67-.239 1.144-.239.616 0 1.167.156 1.65.467.484.312.864.761 1.139 1.348.278.586.418 1.292.418 2.118 0 .825-.138 1.533-.413 2.122-.275.587-.653 1.04-1.134 1.358a2.932 2.932 0 0 1-1.645.472c-.464 0-.844-.078-1.139-.234a2.152 2.152 0 0 1-.686-.547 4.137 4.137 0 0 1-.383-.556h-.124v1.188h-1.452Zm1.457-3.818c0 .537.078 1.007.234 1.412.155.404.381.72.676.949.295.226.656.338 1.084.338.444 0 .815-.117 1.113-.353a2.18 2.18 0 0 0 .676-.969c.156-.408.234-.867.234-1.377 0-.504-.076-.957-.229-1.358a2.072 2.072 0 0 0-.676-.949c-.298-.232-.671-.348-1.118-.348-.431 0-.796.111-1.094.333-.295.222-.519.532-.671.93-.153.397-.229.861-.229 1.392Zm16.136-6.364v10.182h-1.541v-8.641h-.06l-2.436 1.591v-1.471l2.54-1.661h1.497Zm6.894 10.321c-.712 0-1.342-.123-1.889-.368-.543-.245-.969-.583-1.277-1.014a2.437 2.437 0 0 1-.458-1.472 2.598 2.598 0 0 1 1.004-2.098c.312-.245.66-.401 1.044-.467v-.06a2.052 2.052 0 0 1-1.218-.815 2.387 2.387 0 0 1-.452-1.452c-.003-.52.134-.984.413-1.392a2.866 2.866 0 0 1 1.158-.969c.491-.235 1.049-.353 1.675-.353.62 0 1.174.119 1.661.358.49.235.877.558 1.158.969.282.408.425.87.428 1.387a2.419 2.419 0 0 1-.467 1.452c-.309.421-.71.693-1.204.815v.06c.382.066.725.222 1.03.467.308.242.553.546.735.91.186.361.28.758.284 1.188a2.493 2.493 0 0 1-.468 1.472c-.308.431-.735.769-1.282 1.014-.544.245-1.169.368-1.875.368Zm0-1.258c.421 0 .786-.069 1.094-.209.308-.142.547-.339.716-.591a1.62 1.62 0 0 0 .259-.895 1.678 1.678 0 0 0-.279-.94 1.862 1.862 0 0 0-.731-.641 2.312 2.312 0 0 0-1.059-.234 2.35 2.35 0 0 0-1.068.234c-.312.156-.557.37-.736.641a1.644 1.644 0 0 0-.264.94c-.003.341.078.64.244.895.169.252.409.449.721.591.311.14.679.209 1.103.209Zm0-4.738c.339 0 .638-.068.9-.204.262-.135.468-.324.617-.566.152-.242.23-.526.233-.85a1.575 1.575 0 0 0-.228-.836 1.455 1.455 0 0 0-.612-.551 1.983 1.983 0 0 0-.91-.199c-.351 0-.659.066-.924.199a1.455 1.455 0 0 0-.612.551 1.54 1.54 0 0 0-.214.836c-.003.324.07.608.219.85s.355.431.617.566c.265.136.57.204.914.204Zm7.759 4.465-.075.542a8.682 8.682 0 0 1-.253 1.243c-.116.434-.237.837-.363 1.208-.123.371-.224.666-.303.885h-1.054c.043-.206.102-.484.179-.836.076-.348.15-.737.223-1.168.073-.431.128-.87.164-1.317l.05-.557h1.432Zm10.565 1.561c-.786-.003-1.457-.211-2.013-.622-.557-.411-.983-1.009-1.278-1.794-.295-.786-.443-1.732-.443-2.839 0-1.104.148-2.047.443-2.829.298-.782.726-1.379 1.282-1.79.561-.411 1.23-.616 2.009-.616.779 0 1.447.207 2.004.621.556.411.982 1.008 1.277 1.79.299.779.448 1.72.448 2.824 0 1.11-.148 2.058-.443 2.844-.295.782-.721 1.38-1.277 1.794-.557.411-1.227.617-2.009.617Zm0-1.328c.689 0 1.228-.336 1.616-1.009.391-.673.586-1.645.586-2.918 0-.845-.089-1.559-.268-2.143-.176-.586-.429-1.031-.761-1.332a1.664 1.664 0 0 0-1.173-.458c-.686 0-1.225.338-1.616 1.015-.391.676-.588 1.649-.591 2.918 0 .848.087 1.566.263 2.153.179.583.433 1.025.761 1.327.328.298.722.447 1.183.447Zm9.737 1.298c-.683 0-1.292-.118-1.829-.353-.534-.235-.957-.562-1.268-.979a2.6 2.6 0 0 1-.497-1.462h1.561c.02.302.121.563.303.786.186.218.428.387.726.507.298.119.63.179.994.179.401 0 .756-.07 1.064-.209.312-.139.555-.333.731-.582.176-.252.263-.542.263-.87 0-.341-.087-.641-.263-.9-.172-.262-.426-.467-.761-.616-.331-.149-.732-.224-1.203-.224h-.86V219.2h.86c.378 0 .709-.068.994-.204a1.63 1.63 0 0 0 .677-.566c.162-.246.243-.532.243-.86 0-.315-.071-.589-.214-.821a1.442 1.442 0 0 0-.596-.552 1.945 1.945 0 0 0-.905-.198c-.331 0-.641.061-.93.183-.285.12-.517.292-.696.518a1.325 1.325 0 0 0-.288.8h-1.487c.017-.55.179-1.034.488-1.452a3.144 3.144 0 0 1 1.233-.979 4.015 4.015 0 0 1 1.7-.353c.653 0 1.216.127 1.69.383.478.252.845.588 1.104 1.009.262.421.391.882.388 1.382.003.57-.156 1.054-.478 1.452a2.317 2.317 0 0 1-1.272.8v.08c.676.102 1.2.371 1.571.805.374.434.56.973.557 1.616a2.515 2.515 0 0 1-.468 1.506 3.177 3.177 0 0 1-1.277 1.049c-.541.252-1.159.378-1.855.378Zm7.178-1.402a.966.966 0 0 1-.701-.288.965.965 0 0 1-.293-.706c0-.272.098-.504.293-.696a.956.956 0 0 1 .701-.294c.272 0 .506.098.701.294a.938.938 0 0 1 .293.696.947.947 0 0 1-.139.502 1.031 1.031 0 0 1-.358.358.952.952 0 0 1-.497.134Zm0-5.101a.966.966 0 0 1-.701-.288.965.965 0 0 1-.293-.706c0-.272.098-.504.293-.696a.955.955 0 0 1 .701-.293c.272 0 .506.097.701.293a.938.938 0 0 1 .293.696c0 .182-.046.35-.139.502a1.023 1.023 0 0 1-.358.358.952.952 0 0 1-.497.134Zm7.21 6.503c-.682 0-1.292-.118-1.829-.353-.534-.235-.956-.562-1.268-.979a2.6 2.6 0 0 1-.497-1.462h1.561c.02.302.121.563.303.786.186.218.428.387.726.507.298.119.63.179.994.179.401 0 .756-.07 1.064-.209.312-.139.556-.333.731-.582.176-.252.264-.542.264-.87 0-.341-.088-.641-.264-.9-.172-.262-.426-.467-.76-.616-.332-.149-.733-.224-1.204-.224h-.86V219.2h.86c.378 0 .71-.068.995-.204.288-.136.513-.324.676-.566.162-.246.243-.532.243-.86 0-.315-.071-.589-.213-.821a1.444 1.444 0 0 0-.597-.552 1.945 1.945 0 0 0-.905-.198c-.331 0-.641.061-.929.183-.285.12-.517.292-.696.518a1.326 1.326 0 0 0-.289.8h-1.486c.016-.55.179-1.034.487-1.452a3.144 3.144 0 0 1 1.233-.979 4.015 4.015 0 0 1 1.7-.353c.653 0 1.217.127 1.691.383.477.252.845.588 1.103 1.009.262.421.391.882.388 1.382.003.57-.156 1.054-.477 1.452a2.32 2.32 0 0 1-1.273.8v.08c.676.102 1.2.371 1.571.805.375.434.56.973.557 1.616a2.515 2.515 0 0 1-.468 1.506 3.177 3.177 0 0 1-1.277 1.049c-.54.252-1.159.378-1.855.378Zm9.724.03c-.786-.003-1.457-.211-2.014-.622-.556-.411-.982-1.009-1.277-1.794-.295-.786-.443-1.732-.443-2.839 0-1.104.148-2.047.443-2.829.298-.782.725-1.379 1.282-1.79.56-.411 1.23-.616 2.009-.616.779 0 1.447.207 2.003.621.557.411.983 1.008 1.278 1.79.298.779.448 1.72.448 2.824 0 1.11-.148 2.058-.443 2.844-.295.782-.721 1.38-1.278 1.794-.556.411-1.226.617-2.008.617Zm0-1.328c.689 0 1.228-.336 1.616-1.009.391-.673.586-1.645.586-2.918 0-.845-.089-1.559-.268-2.143-.176-.586-.429-1.031-.761-1.332a1.664 1.664 0 0 0-1.173-.458c-.686 0-1.225.338-1.616 1.015-.391.676-.588 1.649-.592 2.918 0 .848.088 1.566.264 2.153.179.583.432 1.025.761 1.327.328.298.722.447 1.183.447Z" fill="#FFE500"/></g><g filter="url(#c)"><rect x="335" y="95.037" width="145" height="66" rx="4" fill="#fff" fill-opacity=".42" shape-rendering="crispEdges"/><path opacity=".5" d="M351.528 113.443v-1.133h6.755v1.133h-2.723v7.594h-1.313v-7.594h-2.719Zm10.553 7.726c-.614 0-1.149-.141-1.607-.422a2.85 2.85 0 0 1-1.065-1.18c-.253-.506-.379-1.097-.379-1.773 0-.679.126-1.273.379-1.781a2.839 2.839 0 0 1 1.065-1.185c.458-.281.993-.422 1.607-.422.613 0 1.149.141 1.606.422.458.281.813.676 1.066 1.185.253.508.379 1.102.379 1.781 0 .676-.126 1.267-.379 1.773a2.845 2.845 0 0 1-1.066 1.18c-.457.281-.993.422-1.606.422Zm.004-1.07c.398 0 .727-.105.989-.315.261-.21.454-.49.579-.839a3.34 3.34 0 0 0 .192-1.155c0-.418-.064-.801-.192-1.151a1.877 1.877 0 0 0-.579-.848c-.262-.213-.591-.319-.989-.319-.4 0-.733.106-.997.319a1.91 1.91 0 0 0-.584.848c-.125.35-.187.733-.187 1.151 0 .42.062.805.187 1.155.128.349.323.629.584.839.264.21.597.315.997.315Zm8.125-5.608v1.023h-3.576v-1.023h3.576Zm-2.617-1.568h1.274v6.192c0 .247.037.433.111.558a.582.582 0 0 0 .286.252c.119.042.248.064.387.064.103 0 .192-.008.269-.022a7.57 7.57 0 0 0 .179-.034l.23 1.053a2.534 2.534 0 0 1-.827.136 2.234 2.234 0 0 1-.937-.179 1.608 1.608 0 0 1-.703-.579c-.179-.262-.269-.59-.269-.985v-6.456Zm6.531 8.259c-.415 0-.79-.077-1.125-.23a1.9 1.9 0 0 1-.797-.678c-.193-.295-.29-.658-.29-1.087 0-.369.071-.673.213-.911.142-.239.334-.428.576-.567.241-.139.511-.245.809-.316.299-.071.602-.125.912-.162l.955-.11c.244-.032.422-.081.532-.149.111-.069.167-.179.167-.333v-.03c0-.372-.106-.66-.316-.865-.207-.204-.517-.307-.929-.307-.429 0-.767.096-1.014.286a1.528 1.528 0 0 0-.507.626l-1.198-.272c.143-.398.35-.719.623-.963.275-.248.592-.427.95-.537a3.697 3.697 0 0 1 1.129-.171c.262 0 .539.031.831.094.296.06.571.17.827.332.258.162.47.394.635.695.165.298.247.686.247 1.163v4.347h-1.244v-.895h-.051a1.818 1.818 0 0 1-.371.486 1.977 1.977 0 0 1-.635.396 2.466 2.466 0 0 1-.929.158Zm.277-1.023c.352 0 .653-.07.903-.209.253-.139.445-.321.576-.545.133-.228.2-.47.2-.729v-.844a.667.667 0 0 1-.264.128c-.128.037-.275.07-.439.098l-.482.073-.392.051a3.186 3.186 0 0 0-.677.157 1.165 1.165 0 0 0-.486.32c-.12.136-.179.318-.179.545 0 .316.116.554.349.716.233.159.53.239.891.239Zm6.524-7.849v8.727h-1.274v-8.727h1.274Zm6.09 11.181v-9h1.244v1.061h.107a3.53 3.53 0 0 1 .32-.473 1.81 1.81 0 0 1 .579-.468c.247-.137.574-.205.98-.205.529 0 1 .134 1.415.401.415.267.74.652.976 1.155.239.502.358 1.108.358 1.815 0 .707-.118 1.314-.354 1.82-.236.502-.56.89-.971 1.163-.412.27-.883.405-1.411.405-.398 0-.723-.067-.976-.201a1.837 1.837 0 0 1-.588-.468 3.53 3.53 0 0 1-.328-.478h-.077v3.473h-1.274Zm1.249-5.727c0 .46.066.864.2 1.21.134.347.327.618.58.814.252.193.562.29.929.29.38 0 .698-.101.954-.302.256-.205.449-.482.58-.831.133-.35.2-.743.2-1.181 0-.432-.065-.819-.196-1.163a1.78 1.78 0 0 0-.58-.814c-.255-.199-.575-.298-.958-.298-.37 0-.682.095-.938.285-.253.19-.445.456-.575.797a3.319 3.319 0 0 0-.196 1.193Zm9.514 3.405c-.613 0-1.149-.141-1.606-.422a2.843 2.843 0 0 1-1.065-1.18c-.253-.506-.38-1.097-.38-1.773 0-.679.127-1.273.38-1.781a2.832 2.832 0 0 1 1.065-1.185c.457-.281.993-.422 1.606-.422.614 0 1.15.141 1.607.422.457.281.813.676 1.065 1.185.253.508.38 1.102.38 1.781 0 .676-.127 1.267-.38 1.773a2.843 2.843 0 0 1-1.065 1.18c-.457.281-.993.422-1.607.422Zm.005-1.07c.397 0 .727-.105.988-.315.262-.21.455-.49.58-.839a3.34 3.34 0 0 0 .192-1.155c0-.418-.064-.801-.192-1.151a1.871 1.871 0 0 0-.58-.848c-.261-.213-.591-.319-.988-.319-.401 0-.733.106-.997.319a1.902 1.902 0 0 0-.584.848c-.125.35-.188.733-.188 1.151 0 .42.063.805.188 1.155.128.349.322.629.584.839.264.21.596.315.997.315Zm5.069.938v-6.546h1.231v1.04h.069c.119-.352.329-.629.63-.831a1.81 1.81 0 0 1 1.031-.307 5.17 5.17 0 0 1 .542.03v1.219a2.3 2.3 0 0 0-.273-.047 2.587 2.587 0 0 0-.392-.03c-.301 0-.57.064-.805.192a1.425 1.425 0 0 0-.759 1.283v3.997h-1.274Zm8.647-6.546v1.023h-3.575v-1.023h3.575Zm-2.616-1.568h1.274v6.192c0 .247.037.433.111.558a.584.584 0 0 0 .285.252c.12.042.249.064.388.064.102 0 .192-.008.269-.022l.179-.034.23 1.053a2.516 2.516 0 0 1-.827.136 2.234 2.234 0 0 1-.937-.179 1.61 1.61 0 0 1-.704-.579c-.179-.262-.268-.59-.268-.985v-6.456Zm7.741 1.568v1.023h-3.699v-1.023h3.699Zm-2.685 6.546v-7.304c0-.409.09-.749.269-1.019.179-.272.416-.475.711-.609.296-.136.617-.204.963-.204.256 0 .475.021.657.063.182.04.316.077.405.111l-.299 1.031a6.434 6.434 0 0 0-.23-.059 1.29 1.29 0 0 0-.341-.039c-.309 0-.531.077-.665.231-.13.153-.196.375-.196.664v7.134h-1.274Zm7.099.132c-.614 0-1.149-.141-1.607-.422a2.85 2.85 0 0 1-1.065-1.18c-.253-.506-.379-1.097-.379-1.773 0-.679.126-1.273.379-1.781a2.839 2.839 0 0 1 1.065-1.185c.458-.281.993-.422 1.607-.422.613 0 1.149.141 1.606.422.458.281.813.676 1.066 1.185.253.508.379 1.102.379 1.781 0 .676-.126 1.267-.379 1.773a2.845 2.845 0 0 1-1.066 1.18c-.457.281-.993.422-1.606.422Zm.004-1.07c.398 0 .727-.105.989-.315.261-.21.454-.49.579-.839a3.34 3.34 0 0 0 .192-1.155c0-.418-.064-.801-.192-1.151a1.877 1.877 0 0 0-.579-.848c-.262-.213-.591-.319-.989-.319-.4 0-.733.106-.997.319a1.91 1.91 0 0 0-.584.848c-.125.35-.187.733-.187 1.151 0 .42.062.805.187 1.155.128.349.323.629.584.839.264.21.597.315.997.315Zm6.343-7.789v8.727h-1.274v-8.727h1.274Zm2.315 8.727v-6.546h1.274v6.546H429.7Zm.643-7.556a.807.807 0 0 1-.571-.221.722.722 0 0 1-.234-.537c0-.21.078-.389.234-.537a.8.8 0 0 1 .571-.226c.222 0 .41.075.567.226a.706.706 0 0 1 .238.537.716.716 0 0 1-.238.537.795.795 0 0 1-.567.221Zm5.702 7.688c-.614 0-1.149-.141-1.607-.422a2.85 2.85 0 0 1-1.065-1.18c-.253-.506-.379-1.097-.379-1.773 0-.679.126-1.273.379-1.781a2.839 2.839 0 0 1 1.065-1.185c.458-.281.993-.422 1.607-.422s1.149.141 1.606.422c.458.281.813.676 1.066 1.185.253.508.379 1.102.379 1.781 0 .676-.126 1.267-.379 1.773a2.845 2.845 0 0 1-1.066 1.18c-.457.281-.992.422-1.606.422Zm.004-1.07c.398 0 .727-.105.989-.315.261-.21.454-.49.579-.839a3.34 3.34 0 0 0 .192-1.155c0-.418-.064-.801-.192-1.151a1.877 1.877 0 0 0-.579-.848c-.262-.213-.591-.319-.989-.319-.4 0-.733.106-.997.319a1.91 1.91 0 0 0-.584.848c-.125.35-.187.733-.187 1.151 0 .42.062.805.187 1.155.128.349.323.629.584.839.264.21.597.315.997.315Z" fill="#6E6EFC"/><path d="M356.54 147.437v-18.8h2v18.8h-2Zm.72-2.16c-1.12 0-2.193-.147-3.22-.44-1.027-.307-1.853-.7-2.48-1.18l1.1-2.44c.6.427 1.307.78 2.12 1.06.827.267 1.66.4 2.5.4.64 0 1.153-.06 1.54-.18.4-.133.693-.313.88-.54.187-.227.28-.487.28-.78a1.03 1.03 0 0 0-.44-.88c-.293-.227-.68-.407-1.16-.54-.48-.147-1.013-.28-1.6-.4a22.475 22.475 0 0 1-1.74-.48 7.466 7.466 0 0 1-1.58-.72 3.632 3.632 0 0 1-1.18-1.16c-.293-.48-.44-1.093-.44-1.84 0-.8.213-1.527.64-2.18.44-.667 1.093-1.193 1.96-1.58.88-.4 1.98-.6 3.3-.6.88 0 1.747.107 2.6.32.853.2 1.607.507 2.26.92l-1 2.46a8.184 8.184 0 0 0-1.96-.82 6.953 6.953 0 0 0-1.92-.28c-.627 0-1.14.073-1.54.22-.4.147-.687.34-.86.58-.173.227-.26.493-.26.8 0 .36.147.653.44.88.293.213.68.387 1.16.52.48.133 1.007.267 1.58.4.587.133 1.167.287 1.74.46.587.173 1.12.407 1.6.7s.867.68 1.16 1.16c.307.48.46 1.087.46 1.82 0 .787-.22 1.507-.66 2.16-.44.653-1.1 1.18-1.98 1.58-.867.4-1.967.6-3.3.6Zm17.098-.24v-12.8l1.4 1.4h-4.2v-2.6h6.04v14h-3.24Zm6.792 3.08 1.32-4.8.44 1.8c-.573 0-1.047-.167-1.42-.5-.36-.333-.54-.793-.54-1.38 0-.587.187-1.053.56-1.4.373-.347.833-.52 1.38-.52.56 0 1.02.18 1.38.54.36.347.54.807.54 1.38 0 .173-.013.347-.04.52-.027.16-.08.36-.16.6a7.53 7.53 0 0 1-.34.88l-1.14 2.88h-1.98Zm12.11-2.84c-1.174 0-2.2-.173-3.08-.52-.88-.36-1.567-.86-2.06-1.5-.494-.653-.74-1.413-.74-2.28 0-.867.24-1.6.72-2.2.493-.613 1.18-1.073 2.06-1.38.88-.32 1.913-.48 3.1-.48 1.2 0 2.24.16 3.12.48.893.307 1.58.767 2.06 1.38.493.6.74 1.333.74 2.2 0 .867-.247 1.627-.74 2.28-.494.64-1.187 1.14-2.08 1.5-.88.347-1.914.52-3.1.52Zm0-2.38c.813 0 1.453-.18 1.92-.54.48-.36.72-.853.72-1.48s-.24-1.113-.72-1.46c-.467-.36-1.107-.54-1.92-.54-.8 0-1.434.18-1.9.54-.467.347-.7.833-.7 1.46s.233 1.12.7 1.48c.466.36 1.1.54 1.9.54Zm0-4.34c-1.08 0-2.027-.147-2.84-.44-.8-.293-1.427-.72-1.88-1.28-.44-.573-.66-1.253-.66-2.04 0-.827.226-1.533.68-2.12.453-.6 1.086-1.06 1.9-1.38.813-.333 1.746-.5 2.8-.5 1.08 0 2.02.167 2.82.5.813.32 1.446.78 1.9 1.38.466.587.7 1.293.7 2.12 0 .787-.227 1.467-.68 2.04-.44.56-1.067.987-1.88 1.28-.814.293-1.767.44-2.86.44Zm0-1.9c.68 0 1.213-.153 1.6-.46.4-.307.6-.727.6-1.26 0-.56-.207-.993-.62-1.3-.4-.307-.927-.46-1.58-.46-.64 0-1.16.153-1.56.46-.4.307-.6.74-.6 1.3 0 .533.193.953.58 1.26.386.307.913.46 1.58.46Zm13.323-5.86c1.293 0 2.406.267 3.34.8.933.533 1.653 1.313 2.16 2.34.506 1.013.76 2.28.76 3.8 0 1.613-.307 2.98-.92 4.1-.6 1.12-1.434 1.973-2.5 2.56-1.067.587-2.307.88-3.72.88-.734 0-1.44-.08-2.12-.24-.68-.16-1.267-.4-1.76-.72l1.2-2.38c.386.267.8.453 1.24.56.44.093.9.14 1.38.14 1.2 0 2.153-.367 2.86-1.1.72-.733 1.08-1.82 1.08-3.26 0-.24-.007-.507-.02-.8a6.755 6.755 0 0 0-.1-.88l.88.84c-.227.52-.547.96-.96 1.32a4.472 4.472 0 0 1-1.44.8c-.547.173-1.16.26-1.84.26-.894 0-1.707-.18-2.44-.54a4.47 4.47 0 0 1-1.74-1.52c-.427-.653-.64-1.42-.64-2.3 0-.96.233-1.787.7-2.48a4.704 4.704 0 0 1 1.92-1.6c.813-.387 1.706-.58 2.68-.58Zm.2 2.42c-.467 0-.874.087-1.22.26-.347.16-.62.4-.82.72-.2.307-.3.673-.3 1.1 0 .64.213 1.153.64 1.54.44.373 1.02.56 1.74.56.466 0 .88-.087 1.24-.26.373-.187.66-.44.86-.76.2-.32.3-.68.3-1.08s-.1-.753-.3-1.06a1.849 1.849 0 0 0-.82-.74c-.36-.187-.8-.28-1.32-.28Zm8.454 8.88v-2.18l6.6-8.88h3.4l-6.46 8.88-1.58-.46h11.02v2.64h-12.98Zm7.54 2.94v-2.94l.1-2.64v-2.62h3.06v8.2h-3.16Z" fill="#6E6EFC"/><rect x="335.5" y="95.537" width="144" height="65" rx="3.5" stroke="url(#d)" shape-rendering="crispEdges"/></g><path d="m43.5 198.537 7.5-3 9.5-15 7.5 5.5 30 5 10 3 31-3 21-5h9.5l20.5 8 30-5 11.5-8.5h7l5 5.5 9 9.5h8.5l1-3 8-1.5 15.5-8.5 10-5.5 7-6.5 6 6.5 4 3.5 12.5 5.5 24 3 15.5-8.5 6.5 2 22 10 21 3 24-15 10-10 6 3 14.5-3h10l6.5-4.5 19 3 14.5-3 21 4.5" stroke="url(#e)" stroke-width="2"/><path d="m51 195.537-7.5 3v8.5h496v-36.5l-21-4.5-14.5 3-19-3-6.5 4.5h-10l-14.5 3-6-3-10 10-24 15-21-3-22-10-6.5-2-15.5 8.5-24-3-12.5-5.5-4-3.5-6-6.5-7 6.5-10 5.5-15.5 8.5-8 1.5-1 3h-8.5l-9-9.5-5-5.5h-7l-11.5 8.5-30 5-20.5-8H160l-21 5-31 3-10-3-30-5-7.5-5.5-9.5 15Z" fill="url(#f)"/><path fill="#47A663" d="M494.681 6.166h.744v192.055h-.744z"/><circle cx="494.681" cy="166.992" r="5.955" fill="#47A663"/><circle cx="494.681" cy="166.992" r="2.978" fill="#fff"/><defs><linearGradient id="d" x1="335" y1="95.037" x2="461.571" y2="186.531" gradientUnits="userSpaceOnUse"><stop stop-color="#fff" stop-opacity=".3"/><stop offset="1" stop-color="#fff" stop-opacity=".1"/></linearGradient><linearGradient id="e" x1="32.898" y1="187.028" x2="272.045" y2="-81.883" gradientUnits="userSpaceOnUse"><stop stop-color="#57CA7A"/><stop offset="1" stop-color="#57CA7A"/></linearGradient><linearGradient id="f" x1="286.5" y1="-93.963" x2="294" y2="215.537" gradientUnits="userSpaceOnUse"><stop stop-color="#57CA7A"/><stop offset="1" stop-color="#7EC894" stop-opacity="0"/></linearGradient><filter id="a" x="-7" y="-7" width="588" height="270" filterUnits="userSpaceOnUse" color-interpolation-filters="sRGB"><feFlood flood-opacity="0" result="BackgroundImageFix"/><feGaussianBlur in="BackgroundImageFix" stdDeviation="3.5"/><feComposite in2="SourceAlpha" operator="in" result="effect1_backgroundBlur_207_159"/><feBlend in="SourceGraphic" in2="effect1_backgroundBlur_207_159" result="shape"/></filter><filter id="b" x="417" y="200.037" width="126" height="39" filterUnits="userSpaceOnUse" color-interpolation-filters="sRGB"><feFlood flood-opacity="0" result="BackgroundImageFix"/><feGaussianBlur in="BackgroundImageFix" stdDeviation="3.5"/><feComposite in2="SourceAlpha" operator="in" result="effect1_backgroundBlur_207_159"/><feColorMatrix in="SourceAlpha" values="0 0 0 0 0 0 0 0 0 0 0 0 0 0 0 0 0 0 127 0" result="hardAlpha"/><feOffset/><feGaussianBlur stdDeviation="1"/><feComposite in2="hardAlpha" operator="out"/><feColorMatrix values="0 0 0 0 0 0 0 0 0 0 0 0 0 0 0 0 0 0 0.25 0"/><feBlend in2="effect1_backgroundBlur_207_159" result="effect2_dropShadow_207_159"/><feBlend in="SourceGraphic" in2="effect2_dropShadow_207_159" result="shape"/></filter><filter id="c" x="328" y="88.037" width="159" height="80" filterUnits="userSpaceOnUse" color-interpolation-filters="sRGB"><feFlood flood-opacity="0" result="BackgroundImageFix"/><feGaussianBlur in="BackgroundImageFix" stdDeviation="3.5"/><feComposite in2="SourceAlpha" operator="in" result="effect1_backgroundBlur_207_159"/><feColorMatrix in="SourceAlpha" values="0 0 0 0 0 0 0 0 0 0 0 0 0 0 0 0 0 0 127 0" result="hardAlpha"/><feOffset/><feGaussianBlur stdDeviation="3"/><feComposite in2="hardAlpha" operator="out"/><feColorMatrix values="0 0 0 0 0 0 0 0 0 0 0 0 0 0 0 0 0 0 0.25 0"/><feBlend in2="effect1_backgroundBlur_207_159" result="effect2_dropShadow_207_159"/><feBlend in="SourceGraphic" in2="effect2_dropShadow_207_159" result="shape"/></filter></defs></svg>